<svg id="Capa_1" data-name="Capa 1" xmlns="http://www.w3.org/2000/svg" viewBox="0 0 120 42">
<defs>
<style>
.cls-1{fill:#fff;}
.cls-2{fill:none;stroke:#fff;stroke-miterlimit:10;stroke-width:6px;}
</style>
</defs>
<path class="cls-1" d="M83.6,150a6.68,6.68,0,0,1,6.67,6.68v20.64A6.68,6.68,0,0,1,83.6,184H77.68A6.68,6.68,0,0,1,71,177.32V156.68A6.68,6.68,0,0,1,77.68,150H83.6m0-4H77.68A10.7,10.7,0,0,0,67,156.68v20.64A10.7,10.7,0,0,0,77.68,188H83.6a10.7,10.7,0,0,0,10.67-10.68V156.68A10.7,10.7,0,0,0,83.6,146Z" transform="translate(-67 -146)"/><path class="cls-1" d="M114.51,150a6.68,6.68,0,0,1,6.67,6.68v20.64a6.68,6.68,0,0,1-6.67,6.68h-5.93a6.68,6.68,0,0,1-6.67-6.68V156.68a6.68,6.68,0,0,1,6.67-6.68h5.93m0-4h-5.93a10.7,10.7,0,0,0-10.67,10.68v20.64A10.7,10.7,0,0,0,108.58,188h5.93a10.7,10.7,0,0,0,10.67-10.68V156.68A10.7,10.7,0,0,0,114.51,146Z" transform="translate(-67 -146)"/><path class="cls-1" d="M145.42,150a6.68,6.68,0,0,1,6.67,6.68v20.64a6.68,6.68,0,0,1-6.67,6.68h-5.93a6.68,6.68,0,0,1-6.67-6.68V156.68a6.68,6.68,0,0,1,6.67-6.68h5.93m0-4h-5.93a10.7,10.7,0,0,0-10.67,10.68v20.64A10.7,10.7,0,0,0,139.49,188h5.93a10.7,10.7,0,0,0,10.67-10.68V156.68A10.7,10.7,0,0,0,145.42,146Z" transform="translate(-67 -146)"/><path class="cls-1" d="M176.32,150a6.68,6.68,0,0,1,6.68,6.68v20.64a6.68,6.68,0,0,1-6.68,6.68H170.4a6.68,6.68,0,0,1-6.67-6.68V156.68A6.68,6.68,0,0,1,170.4,150h5.92m0-4H170.4a10.7,10.7,0,0,0-10.67,10.68v20.64A10.7,10.7,0,0,0,170.4,188h5.92A10.7,10.7,0,0,0,187,177.32V156.68A10.7,10.7,0,0,0,176.32,146Z" transform="translate(-67 -146)"/><line class="cls-2" x1="24.55" y1="21" x2="34.55" y2="21"/><line class="cls-2" x1="55.45" y1="21" x2="65.45" y2="21"/>
<line class="cls-2" x1="86.36" y1="21" x2="96.36" y2="21"/>
</svg>