<svg width="296" height="152" viewBox="0 0 296 152" fill="none" xmlns="http://www.w3.org/2000/svg">
<path d="M295.607 151.966H0.392895C0.288847 151.966 0.189167 151.924 0.1157 151.851C0.0422343 151.778 0.000976562 151.678 0.000976562 151.575C0.000976562 151.471 0.0422343 151.372 0.1157 151.298C0.189167 151.225 0.288847 151.183 0.392895 151.183H295.607C295.711 151.183 295.811 151.225 295.884 151.298C295.957 151.372 295.999 151.471 295.999 151.575C295.999 151.678 295.957 151.778 295.884 151.851C295.811 151.924 295.711 151.966 295.607 151.966Z" fill="white"/>
<path d="M92.5469 18.8892C93.7259 18.8892 94.6817 17.9372 94.6817 16.7629C94.6817 15.5885 93.7259 14.6365 92.5469 14.6365C91.3679 14.6365 90.4121 15.5885 90.4121 16.7629C90.4121 17.9372 91.3679 18.8892 92.5469 18.8892Z" fill="#F2F2F2"/>
<path d="M84.0391 18.8892C85.2181 18.8892 86.1738 17.9372 86.1738 16.7629C86.1738 15.5885 85.2181 14.6365 84.0391 14.6365C82.8601 14.6365 81.9043 15.5885 81.9043 16.7629C81.9043 17.9372 82.8601 18.8892 84.0391 18.8892Z" fill="#F2F2F2"/>
<path d="M75.5313 18.8892C76.7103 18.8892 77.666 17.9372 77.666 16.7629C77.666 15.5885 76.7103 14.6365 75.5313 14.6365C74.3523 14.6365 73.3965 15.5885 73.3965 16.7629C73.3965 17.9372 74.3523 18.8892 75.5313 18.8892Z" fill="#F2F2F2"/>
<path d="M67.0234 18.8892C68.2024 18.8892 69.1582 17.9372 69.1582 16.7629C69.1582 15.5885 68.2024 14.6365 67.0234 14.6365C65.8444 14.6365 64.8887 15.5885 64.8887 16.7629C64.8887 17.9372 65.8444 18.8892 67.0234 18.8892Z" fill="#F2F2F2"/>
<path d="M92.5469 27.7672C93.7259 27.7672 94.6817 26.8152 94.6817 25.6408C94.6817 24.4664 93.7259 23.5144 92.5469 23.5144C91.3679 23.5144 90.4121 24.4664 90.4121 25.6408C90.4121 26.8152 91.3679 27.7672 92.5469 27.7672Z" fill="#F2F2F2"/>
<path d="M84.0391 27.7672C85.2181 27.7672 86.1738 26.8152 86.1738 25.6408C86.1738 24.4664 85.2181 23.5144 84.0391 23.5144C82.8601 23.5144 81.9043 24.4664 81.9043 25.6408C81.9043 26.8152 82.8601 27.7672 84.0391 27.7672Z" fill="#F2F2F2"/>
<path d="M75.5313 27.7672C76.7103 27.7672 77.666 26.8152 77.666 25.6408C77.666 24.4664 76.7103 23.5144 75.5313 23.5144C74.3523 23.5144 73.3965 24.4664 73.3965 25.6408C73.3965 26.8152 74.3523 27.7672 75.5313 27.7672Z" fill="#F2F2F2"/>
<path d="M67.0234 27.7672C68.2024 27.7672 69.1582 26.8152 69.1582 25.6408C69.1582 24.4664 68.2024 23.5144 67.0234 23.5144C65.8444 23.5144 64.8887 24.4664 64.8887 25.6408C64.8887 26.8152 65.8444 27.7672 67.0234 27.7672Z" fill="#F2F2F2"/>
<path d="M92.5469 36.645C93.7259 36.645 94.6817 35.693 94.6817 34.5186C94.6817 33.3442 93.7259 32.3922 92.5469 32.3922C91.3679 32.3922 90.4121 33.3442 90.4121 34.5186C90.4121 35.693 91.3679 36.645 92.5469 36.645Z" fill="#F2F2F2"/>
<path d="M84.0391 36.645C85.2181 36.645 86.1738 35.693 86.1738 34.5186C86.1738 33.3442 85.2181 32.3922 84.0391 32.3922C82.8601 32.3922 81.9043 33.3442 81.9043 34.5186C81.9043 35.693 82.8601 36.645 84.0391 36.645Z" fill="#F2F2F2"/>
<path d="M75.5313 36.645C76.7103 36.645 77.666 35.693 77.666 34.5186C77.666 33.3442 76.7103 32.3922 75.5313 32.3922C74.3523 32.3922 73.3965 33.3442 73.3965 34.5186C73.3965 35.693 74.3523 36.645 75.5313 36.645Z" fill="#F2F2F2"/>
<path d="M67.0234 36.645C68.2024 36.645 69.1582 35.693 69.1582 34.5186C69.1582 33.3442 68.2024 32.3922 67.0234 32.3922C65.8444 32.3922 64.8887 33.3442 64.8887 34.5186C64.8887 35.693 65.8444 36.645 67.0234 36.645Z" fill="#F2F2F2"/>
<path d="M92.5469 45.5229C93.7259 45.5229 94.6817 44.5709 94.6817 43.3965C94.6817 42.2222 93.7259 41.2701 92.5469 41.2701C91.3679 41.2701 90.4121 42.2222 90.4121 43.3965C90.4121 44.5709 91.3679 45.5229 92.5469 45.5229Z" fill="#F2F2F2"/>
<path d="M84.0391 45.5229C85.2181 45.5229 86.1738 44.5709 86.1738 43.3965C86.1738 42.2222 85.2181 41.2701 84.0391 41.2701C82.8601 41.2701 81.9043 42.2222 81.9043 43.3965C81.9043 44.5709 82.8601 45.5229 84.0391 45.5229Z" fill="#F2F2F2"/>
<path d="M75.5313 45.5229C76.7103 45.5229 77.666 44.5709 77.666 43.3965C77.666 42.2222 76.7103 41.2701 75.5313 41.2701C74.3523 41.2701 73.3965 42.2222 73.3965 43.3965C73.3965 44.5709 74.3523 45.5229 75.5313 45.5229Z" fill="#F2F2F2"/>
<path d="M67.0234 45.5229C68.2024 45.5229 69.1582 44.5709 69.1582 43.3965C69.1582 42.2222 68.2024 41.2701 67.0234 41.2701C65.8444 41.2701 64.8887 42.2222 64.8887 43.3965C64.8887 44.5709 65.8444 45.5229 67.0234 45.5229Z" fill="#F2F2F2"/>
<path d="M92.5469 54.4008C93.7259 54.4008 94.6817 53.4488 94.6817 52.2745C94.6817 51.1001 93.7259 50.1481 92.5469 50.1481C91.3679 50.1481 90.4121 51.1001 90.4121 52.2745C90.4121 53.4488 91.3679 54.4008 92.5469 54.4008Z" fill="#F2F2F2"/>
<path d="M84.0391 54.4008C85.2181 54.4008 86.1738 53.4488 86.1738 52.2745C86.1738 51.1001 85.2181 50.1481 84.0391 50.1481C82.8601 50.1481 81.9043 51.1001 81.9043 52.2745C81.9043 53.4488 82.8601 54.4008 84.0391 54.4008Z" fill="#F2F2F2"/>
<path d="M75.5313 54.4008C76.7103 54.4008 77.666 53.4488 77.666 52.2745C77.666 51.1001 76.7103 50.1481 75.5313 50.1481C74.3523 50.1481 73.3965 51.1001 73.3965 52.2745C73.3965 53.4488 74.3523 54.4008 75.5313 54.4008Z" fill="#F2F2F2"/>
<path d="M67.0234 54.4008C68.2024 54.4008 69.1582 53.4488 69.1582 52.2745C69.1582 51.1001 68.2024 50.1481 67.0234 50.1481C65.8444 50.1481 64.8887 51.1001 64.8887 52.2745C64.8887 53.4488 65.8444 54.4008 67.0234 54.4008Z" fill="#F2F2F2"/>
<path d="M92.5469 63.2788C93.7259 63.2788 94.6817 62.3268 94.6817 61.1524C94.6817 59.978 93.7259 59.026 92.5469 59.026C91.3679 59.026 90.4121 59.978 90.4121 61.1524C90.4121 62.3268 91.3679 63.2788 92.5469 63.2788Z" fill="#F2F2F2"/>
<path d="M84.0391 63.2788C85.2181 63.2788 86.1738 62.3268 86.1738 61.1524C86.1738 59.978 85.2181 59.026 84.0391 59.026C82.8601 59.026 81.9043 59.978 81.9043 61.1524C81.9043 62.3268 82.8601 63.2788 84.0391 63.2788Z" fill="#F2F2F2"/>
<path d="M75.5313 63.2788C76.7103 63.2788 77.666 62.3268 77.666 61.1524C77.666 59.978 76.7103 59.026 75.5313 59.026C74.3523 59.026 73.3965 59.978 73.3965 61.1524C73.3965 62.3268 74.3523 63.2788 75.5313 63.2788Z" fill="#F2F2F2"/>
<path d="M67.0234 63.2788C68.2024 63.2788 69.1582 62.3268 69.1582 61.1524C69.1582 59.978 68.2024 59.026 67.0234 59.026C65.8444 59.026 64.8887 59.978 64.8887 61.1524C64.8887 62.3268 65.8444 63.2788 67.0234 63.2788Z" fill="#F2F2F2"/>
<path d="M73.7881 119.161V119.819C73.789 120.908 74.2241 121.953 74.9977 122.724C75.7714 123.495 76.8204 123.928 77.9144 123.929H107.624C108.718 123.928 109.768 123.495 110.542 122.725C111.315 121.954 111.75 120.909 111.751 119.819V119.161C111.753 118.199 111.414 117.268 110.793 116.531C110.587 116.286 110.353 116.065 110.097 115.873C110.097 115.873 93.7629 115.505 93.7629 115.051H77.9144C76.8205 115.052 75.7719 115.486 74.9983 116.256C74.2248 117.027 73.7896 118.071 73.7881 119.161Z" fill="#CCCCCC"/>
<path d="M95.1547 123.766H90.8633V151.386H95.1547V123.766Z" fill="#CCCCCC"/>
<path d="M107.368 151.235C107.368 151.697 100.865 151.414 92.8431 151.414C84.8213 151.414 78.3184 151.697 78.3184 151.235C78.3184 150.774 84.8213 147.111 92.8431 147.111C100.865 147.111 107.368 150.774 107.368 151.235Z" fill="#CCCCCC"/>
<path d="M101.469 118.603C101.778 118.189 101.993 117.712 102.098 117.207C102.203 116.701 102.195 116.179 102.075 115.676C101.956 115.174 101.727 114.704 101.405 114.299C101.083 113.894 100.675 113.565 100.212 113.334L91.1164 82.463L84.1904 85.8418L95.3088 115.124C94.9707 115.926 94.9396 116.823 95.2213 117.646C95.503 118.469 96.0779 119.16 96.8372 119.589C97.5965 120.018 98.4873 120.154 99.3409 119.973C100.195 119.791 100.952 119.304 101.469 118.603L101.469 118.603Z" fill="#A0616A"/>
<path d="M93.1769 87.6184L85.4251 89.7086C85.2046 89.768 84.9737 89.7794 84.7483 89.742C84.523 89.7046 84.3083 89.6193 84.119 89.4918C83.9297 89.3643 83.7702 89.1977 83.6514 89.0033C83.5326 88.8089 83.4573 88.5912 83.4305 88.3652L82.4936 80.445C82.1946 79.3192 82.3559 78.1213 82.9422 77.1139C83.5285 76.1065 84.4919 75.3717 85.6213 75.0707C86.7506 74.7698 87.9537 74.9271 88.9667 75.5083C89.9797 76.0895 90.7201 77.0471 91.0254 78.1712L94.2189 85.4562C94.3102 85.6648 94.3554 85.8906 94.3513 86.1182C94.3471 86.3457 94.2938 86.5698 94.1949 86.7749C94.0961 86.9801 93.9539 87.1617 93.7783 87.3072C93.6026 87.4528 93.3975 87.5589 93.1769 87.6184H93.1769Z" fill="#123F72"/>
<path d="M103.494 147.998L107.541 147.998L109.466 137.543H103.493L103.494 147.998Z" fill="#A0616A"/>
<path d="M102.462 146.682L110.432 146.682H110.432C111.099 146.682 111.76 146.812 112.376 147.067C112.992 147.321 113.552 147.694 114.024 148.163C114.496 148.633 114.87 149.191 115.125 149.805C115.38 150.419 115.512 151.076 115.512 151.741V151.905L102.462 151.906L102.462 146.682Z" fill="#2F2E41"/>
<path d="M108.192 142.392C108.145 142.392 108.097 142.389 108.05 142.385L102.449 141.979C102.223 141.958 102.004 141.885 101.81 141.767C101.616 141.648 101.452 141.487 101.331 141.296C101.209 141.104 101.133 140.887 101.109 140.662C101.085 140.437 101.113 140.209 101.192 139.996L108.687 123.222C108.741 123.072 108.763 122.913 108.752 122.755C108.74 122.597 108.696 122.442 108.622 122.302C108.549 122.159 108.445 122.034 108.32 121.935C108.194 121.835 108.048 121.763 107.893 121.723C104.368 120.805 95.3246 118.362 87.4963 115.503C84.1425 114.278 82.0301 112.507 81.2181 110.241C80.1475 107.253 81.7313 104.528 81.7992 104.414L81.8523 104.324L89.2186 104.991L97.2043 105.668L114.704 115.015C116.171 115.805 117.285 117.116 117.824 118.687C118.364 120.258 118.289 121.974 117.616 123.493L109.547 141.515C109.431 141.776 109.241 141.997 109 142.153C108.759 142.309 108.479 142.392 108.192 142.392Z" fill="#2F2E41"/>
<path d="M90.4994 71.8047C94.9772 71.8047 98.6072 68.189 98.6072 63.7288C98.6072 59.2686 94.9772 55.6528 90.4994 55.6528C86.0216 55.6528 82.3916 59.2686 82.3916 63.7288C82.3916 68.189 86.0216 71.8047 90.4994 71.8047Z" fill="#A0616A"/>
<path d="M101.183 147.669L105.23 147.669L107.156 137.214H101.183L101.183 147.669Z" fill="#A0616A"/>
<path d="M100.151 146.353L108.121 146.353H108.122C108.789 146.353 109.449 146.484 110.065 146.738C110.682 146.992 111.242 147.365 111.713 147.835C112.185 148.304 112.559 148.862 112.814 149.476C113.07 150.09 113.201 150.748 113.201 151.412V151.576L100.152 151.577L100.151 146.353Z" fill="#2F2E41"/>
<path d="M105.881 143.378C105.834 143.378 105.787 143.376 105.739 143.371L100.139 142.965C99.9121 142.944 99.6934 142.872 99.4995 142.753C99.3056 142.635 99.1415 142.474 99.02 142.282C98.8985 142.091 98.8228 141.874 98.7987 141.648C98.7746 141.423 98.8028 141.195 98.8811 140.983L106.377 124.208C106.43 124.059 106.452 123.9 106.441 123.742C106.43 123.583 106.386 123.429 106.312 123.288C106.238 123.146 106.135 123.021 106.009 122.921C105.883 122.821 105.738 122.749 105.582 122.71C102.057 121.792 93.0141 119.348 85.1858 116.489C81.8319 115.264 79.7196 113.494 78.9075 111.227C77.8369 108.24 79.4207 105.515 79.4887 105.4L79.5418 105.311L86.9081 105.978L94.8938 106.654L112.394 116.002C113.86 116.792 114.974 118.103 115.514 119.674C116.053 121.245 115.979 122.961 115.305 124.48L107.237 142.501C107.12 142.762 106.93 142.984 106.689 143.139C106.449 143.295 106.168 143.378 105.881 143.378Z" fill="#2F2E41"/>
<path d="M93.0002 76.3841L84.4174 73.4248C84.4174 73.4248 79.0294 77.5481 81.6178 87.7769C82.9691 93.0554 82.5755 98.6272 80.4954 103.665C80.2449 104.288 79.9562 104.896 79.6309 105.484C79.6309 105.484 89.204 116.992 98.1169 108.443L94.6508 91.8382C94.6508 91.8382 100.098 80.8231 93.0002 76.3841Z" fill="#2F2E41"/>
<path d="M91.5061 72.0794C90.3522 70.3589 89.4415 67.9733 90.712 66.3364C91.9661 64.7205 94.4396 64.9586 96.3603 64.2436C99.0355 63.2477 100.587 60.1173 100.103 57.3137C99.6193 54.5101 97.3599 52.1861 94.6683 51.2352C91.9767 50.2842 88.9414 50.5935 86.3056 51.6886C83.0609 53.0366 80.2774 55.6442 79.1103 58.9475C77.9431 62.2507 78.567 66.2168 80.9883 68.7558C83.5843 71.4778 87.6584 72.2032 91.4273 72.1592" fill="#2F2E41"/>
<path d="M83.9643 57.4037C82.5103 58.5828 80.2918 58.0591 78.7309 57.0243C77.1701 55.9895 75.9035 54.516 74.2147 53.7047C71.2374 52.2744 67.6377 53.2252 64.74 54.8096C61.8424 56.3939 59.2737 58.5827 56.2129 59.8259C53.1521 61.0692 49.2463 61.1307 46.9287 58.7831C46.3583 60.4291 46.3117 62.2102 46.7952 63.8836C47.2786 65.5569 48.2686 67.0409 49.6301 68.1331C50.9916 69.2253 52.6582 69.8725 54.4026 69.9864C56.147 70.1003 57.8841 69.6754 59.3771 68.7695C62.7308 66.7347 64.5833 62.4683 68.3448 61.3452C70.4263 60.7237 72.6614 61.2243 74.7651 61.7665C76.8689 62.3086 79.0624 62.8944 81.1855 62.4329C83.3085 61.9713 85.2943 60.071 85.0242 57.9233L83.9643 57.4037Z" fill="#2F2E41"/>
<path d="M110.358 133.499C109.499 127.945 109.499 122.293 110.358 116.738C110.412 116.408 110.583 116.107 110.839 115.89C111.095 115.673 111.42 115.553 111.756 115.553H124.919C125.132 115.552 125.343 115.6 125.535 115.692C125.726 115.785 125.895 115.92 126.026 116.087C126.161 116.257 126.255 116.455 126.301 116.666C126.347 116.877 126.344 117.096 126.293 117.305C125.062 122.442 125.062 127.795 126.293 132.932C126.344 133.142 126.347 133.361 126.301 133.572C126.255 133.783 126.161 133.981 126.026 134.15C125.895 134.318 125.726 134.453 125.535 134.545C125.343 134.638 125.132 134.686 124.919 134.685H111.756C111.42 134.684 111.095 134.565 110.839 134.348C110.583 134.131 110.412 133.83 110.358 133.499Z" fill="#123F72"/>
<path d="M120.868 123.667H113.961C113.698 123.666 113.447 123.562 113.261 123.377C113.075 123.192 112.971 122.942 112.971 122.68V122.295C112.971 122.033 113.075 121.783 113.261 121.598C113.447 121.413 113.698 121.309 113.961 121.308H120.868C121.131 121.309 121.382 121.413 121.568 121.598C121.754 121.783 121.858 122.033 121.858 122.295V122.68C121.858 122.942 121.754 123.192 121.568 123.377C121.382 123.562 121.131 123.666 120.868 123.667Z" fill="white"/>
<path d="M120.868 127.726H113.961C113.698 127.725 113.447 127.621 113.261 127.436C113.075 127.251 112.971 127.001 112.971 126.739V126.354C112.971 126.092 113.075 125.841 113.261 125.656C113.447 125.471 113.698 125.367 113.961 125.367H120.868C121.131 125.367 121.382 125.471 121.568 125.656C121.754 125.841 121.858 126.092 121.858 126.354V126.739C121.858 127.001 121.754 127.251 121.568 127.436C121.382 127.621 121.131 127.725 120.868 127.726Z" fill="white"/>
<path d="M113.819 117.124C114.015 116.646 114.103 116.131 114.078 115.615C114.053 115.099 113.914 114.595 113.672 114.139C113.43 113.682 113.09 113.284 112.677 112.972C112.264 112.66 111.787 112.442 111.28 112.334L94.7299 84.7059L88.8711 89.7011L106.982 115.288C106.855 116.148 107.05 117.025 107.529 117.751C108.009 118.478 108.739 119.004 109.581 119.231C110.424 119.457 111.321 119.368 112.102 118.979C112.883 118.591 113.494 117.931 113.819 117.124L113.819 117.124Z" fill="#A0616A"/>
<path d="M98.0178 89.1851L91.0361 93.1381C90.8375 93.2506 90.6168 93.3191 90.3892 93.3389C90.1615 93.3588 89.9323 93.3296 89.717 93.2533C89.5018 93.1769 89.3055 93.0553 89.1417 92.8966C88.9779 92.7379 88.8504 92.5459 88.7678 92.3337L85.874 84.8978C85.3021 83.8822 85.1579 82.6822 85.473 81.5608C85.788 80.4395 86.5366 79.4883 87.5546 78.9158C88.5726 78.3433 89.7769 78.1963 90.9036 78.5069C92.0303 78.8176 92.9873 79.5605 93.5649 80.5729L98.4843 86.8322C98.6251 87.0115 98.7255 87.2189 98.7786 87.4402C98.8317 87.6616 98.8362 87.8918 98.7919 88.1151C98.7477 88.3384 98.6556 88.5495 98.522 88.7342C98.3884 88.9188 98.2164 89.0726 98.0178 89.1851Z" fill="#2F2E41"/>
<path d="M172.305 98.8898H38.2814C37.7124 98.8898 37.1666 99.1149 36.7642 99.5158C36.3618 99.9166 36.1357 100.46 36.1357 101.027C36.1357 101.594 36.3618 102.138 36.7642 102.538C37.1666 102.939 37.7124 103.164 38.2814 103.164H42.0777V149.691C42.0777 150.258 42.3038 150.802 42.7062 151.202C43.1086 151.603 43.6543 151.828 44.2234 151.828C44.7925 151.828 45.3382 151.603 45.7406 151.202C46.143 150.802 46.3691 150.258 46.3691 149.691V107.271L70.4245 150.7C70.7096 151.19 71.1782 151.547 71.7273 151.693C72.2764 151.838 72.8612 151.761 73.3534 151.478C73.8456 151.195 74.2049 150.729 74.3526 150.183C74.5002 149.636 74.4241 149.053 74.1409 148.563L48.9947 103.164H163.888V103.192L138.757 148.563C138.472 149.053 138.395 149.637 138.542 150.184C138.69 150.732 139.049 151.199 139.542 151.482C140.035 151.765 140.621 151.842 141.17 151.696C141.72 151.549 142.189 151.191 142.473 150.7L163.888 112.039V149.691C163.888 150.258 164.114 150.802 164.516 151.202C164.919 151.603 165.464 151.828 166.033 151.828C166.602 151.828 167.148 151.603 167.551 151.202C167.953 150.802 168.179 150.258 168.179 149.691V104.291L168.803 103.164H172.305C172.874 103.164 173.42 102.939 173.823 102.538C174.225 102.138 174.451 101.594 174.451 101.027C174.451 100.46 174.225 99.9166 173.823 99.5158C173.42 99.1149 172.874 98.8898 172.305 98.8898Z" fill="white"/>
<path d="M116.847 97.5745H90.7687C90.1306 97.5745 89.6133 98.0897 89.6133 98.7253C89.6133 99.3609 90.1306 99.8761 90.7687 99.8761H116.847C117.485 99.8761 118.003 99.3609 118.003 98.7253C118.003 98.0897 117.485 97.5745 116.847 97.5745Z" fill="#CCCCCC"/>
<path d="M134.344 99.8761H104.964C104.395 99.8755 103.85 99.6501 103.448 99.2494C103.045 98.8488 102.819 98.3055 102.818 97.7389V81.6271C102.819 81.0605 103.045 80.5172 103.448 80.1166C103.85 79.7159 104.395 79.4905 104.964 79.4899H134.344C134.913 79.4905 135.458 79.7159 135.86 80.1166C136.263 80.5172 136.489 81.0605 136.489 81.6271V97.7389C136.489 98.3055 136.263 98.8488 135.86 99.2494C135.458 99.6501 134.913 99.8755 134.344 99.8761Z" fill="#CCCCCC"/>
<path d="M119.654 91.6559C120.747 91.6559 121.634 90.7727 121.634 89.6831C121.634 88.5935 120.747 87.7102 119.654 87.7102C118.56 87.7102 117.673 88.5935 117.673 89.6831C117.673 90.7727 118.56 91.6559 119.654 91.6559Z" fill="white"/>
<path d="M156.765 60.1795V2.47313C156.765 1.81744 157.027 1.18882 157.493 0.725184C157.958 0.261544 158.589 0.000745821 159.248 0H205.043C205.701 0.000745821 206.332 0.261544 206.798 0.725184C207.263 1.18882 207.525 1.81744 207.526 2.47313V60.1795C207.525 60.8351 207.263 61.4638 206.798 61.9274C206.332 62.391 205.701 62.6518 205.043 62.6526H159.248C158.589 62.6518 157.958 62.391 157.493 61.9274C157.027 61.4638 156.765 60.8351 156.765 60.1795ZM159.248 0.549585C158.736 0.550158 158.245 0.753 157.883 1.11361C157.521 1.47422 157.317 1.96315 157.316 2.47313V60.1795C157.317 60.6894 157.521 61.1784 157.883 61.539C158.245 61.8996 158.736 62.1024 159.248 62.103H205.043C205.555 62.1024 206.046 61.8996 206.408 61.539C206.77 61.1784 206.974 60.6894 206.974 60.1795V2.47313C206.974 1.96315 206.77 1.47422 206.408 1.11361C206.046 0.753 205.555 0.550158 205.043 0.549585H159.248Z" fill="#E6E6E6"/>
<path d="M184.713 26.5014V14.6525C184.713 14.3246 184.844 14.0103 185.077 13.7785C185.31 13.5466 185.625 13.4163 185.954 13.4159H196.035C196.364 13.4163 196.68 13.5466 196.912 13.7785C197.145 14.0103 197.276 14.3246 197.276 14.6525V26.5014C197.276 26.8292 197.145 27.1435 196.912 27.3754C196.68 27.6072 196.364 27.7376 196.035 27.7379H185.954C185.625 27.7376 185.31 27.6072 185.077 27.3754C184.844 27.1435 184.713 26.8292 184.713 26.5014Z" fill="#E6E6E6"/>
<path d="M165.126 31.9972V20.1483C165.126 19.8205 165.257 19.5062 165.49 19.2743C165.723 19.0425 166.038 18.9121 166.367 18.9117H176.448C176.777 18.9121 177.093 19.0425 177.325 19.2743C177.558 19.5062 177.689 19.8205 177.689 20.1483V31.9972C177.689 32.3251 177.558 32.6394 177.325 32.8712C177.093 33.103 176.777 33.2334 176.448 33.2338H166.367C166.038 33.2334 165.723 33.103 165.49 32.8712C165.257 32.6394 165.126 32.3251 165.126 31.9972Z" fill="#CCCCCC"/>
<path d="M180.851 48.7596V36.9106C180.851 36.5828 180.982 36.2685 181.215 36.0367C181.447 35.8048 181.763 35.6744 182.092 35.6741H192.173C192.502 35.6744 192.817 35.8048 193.05 36.0367C193.283 36.2685 193.414 36.5828 193.414 36.9106V48.7596C193.414 49.0874 193.283 49.4017 193.05 49.6335C192.817 49.8654 192.502 49.9958 192.173 49.9961H182.092C181.763 49.9958 181.447 49.8654 181.215 49.6336C180.982 49.4017 180.851 49.0874 180.851 48.7596Z" fill="white"/>
<path d="M257.729 6.01302C258.908 6.01302 259.864 5.06101 259.864 3.88664C259.864 2.71227 258.908 1.76025 257.729 1.76025C256.55 1.76025 255.595 2.71227 255.595 3.88664C255.595 5.06101 256.55 6.01302 257.729 6.01302Z" fill="#F2F2F2"/>
<path d="M257.729 14.4875C258.908 14.4875 259.864 13.5355 259.864 12.3611C259.864 11.1868 258.908 10.2347 257.729 10.2347C256.55 10.2347 255.595 11.1868 255.595 12.3611C255.595 13.5355 256.55 14.4875 257.729 14.4875Z" fill="#F2F2F2"/>
<path d="M257.729 22.9621C258.908 22.9621 259.864 22.0101 259.864 20.8357C259.864 19.6614 258.908 18.7094 257.729 18.7094C256.55 18.7094 255.595 19.6614 255.595 20.8357C255.595 22.0101 256.55 22.9621 257.729 22.9621Z" fill="#F2F2F2"/>
<path d="M257.729 31.4366C258.908 31.4366 259.864 30.4846 259.864 29.3102C259.864 28.1359 258.908 27.1838 257.729 27.1838C256.55 27.1838 255.595 28.1359 255.595 29.3102C255.595 30.4846 256.55 31.4366 257.729 31.4366Z" fill="#F2F2F2"/>
<path d="M248.816 6.01302C249.995 6.01302 250.951 5.06101 250.951 3.88664C250.951 2.71227 249.995 1.76025 248.816 1.76025C247.637 1.76025 246.682 2.71227 246.682 3.88664C246.682 5.06101 247.637 6.01302 248.816 6.01302Z" fill="#F2F2F2"/>
<path d="M248.816 14.4875C249.995 14.4875 250.951 13.5355 250.951 12.3611C250.951 11.1868 249.995 10.2347 248.816 10.2347C247.637 10.2347 246.682 11.1868 246.682 12.3611C246.682 13.5355 247.637 14.4875 248.816 14.4875Z" fill="#F2F2F2"/>
<path d="M248.816 22.9621C249.995 22.9621 250.951 22.0101 250.951 20.8357C250.951 19.6614 249.995 18.7094 248.816 18.7094C247.637 18.7094 246.682 19.6614 246.682 20.8357C246.682 22.0101 247.637 22.9621 248.816 22.9621Z" fill="#F2F2F2"/>
<path d="M248.816 31.4366C249.995 31.4366 250.951 30.4846 250.951 29.3102C250.951 28.1359 249.995 27.1838 248.816 27.1838C247.637 27.1838 246.682 28.1359 246.682 29.3102C246.682 30.4846 247.637 31.4366 248.816 31.4366Z" fill="#F2F2F2"/>
<path d="M239.903 6.01302C241.082 6.01302 242.038 5.06101 242.038 3.88664C242.038 2.71227 241.082 1.76025 239.903 1.76025C238.724 1.76025 237.769 2.71227 237.769 3.88664C237.769 5.06101 238.724 6.01302 239.903 6.01302Z" fill="#F2F2F2"/>
<path d="M239.903 14.4875C241.082 14.4875 242.038 13.5355 242.038 12.3611C242.038 11.1868 241.082 10.2347 239.903 10.2347C238.724 10.2347 237.769 11.1868 237.769 12.3611C237.769 13.5355 238.724 14.4875 239.903 14.4875Z" fill="#F2F2F2"/>
<path d="M239.903 22.9621C241.082 22.9621 242.038 22.0101 242.038 20.8357C242.038 19.6614 241.082 18.7094 239.903 18.7094C238.724 18.7094 237.769 19.6614 237.769 20.8357C237.769 22.0101 238.724 22.9621 239.903 22.9621Z" fill="#F2F2F2"/>
<path d="M239.903 31.4366C241.082 31.4366 242.038 30.4846 242.038 29.3102C242.038 28.1359 241.082 27.1838 239.903 27.1838C238.724 27.1838 237.769 28.1359 237.769 29.3102C237.769 30.4846 238.724 31.4366 239.903 31.4366Z" fill="#F2F2F2"/>
<path d="M230.99 6.01302C232.169 6.01302 233.125 5.06101 233.125 3.88664C233.125 2.71227 232.169 1.76025 230.99 1.76025C229.811 1.76025 228.855 2.71227 228.855 3.88664C228.855 5.06101 229.811 6.01302 230.99 6.01302Z" fill="#F2F2F2"/>
<path d="M230.99 14.4875C232.169 14.4875 233.125 13.5355 233.125 12.3611C233.125 11.1868 232.169 10.2347 230.99 10.2347C229.811 10.2347 228.855 11.1868 228.855 12.3611C228.855 13.5355 229.811 14.4875 230.99 14.4875Z" fill="#F2F2F2"/>
<path d="M230.99 22.9621C232.169 22.9621 233.125 22.0101 233.125 20.8357C233.125 19.6614 232.169 18.7094 230.99 18.7094C229.811 18.7094 228.855 19.6614 228.855 20.8357C228.855 22.0101 229.811 22.9621 230.99 22.9621Z" fill="#F2F2F2"/>
<path d="M230.99 31.4366C232.169 31.4366 233.125 30.4846 233.125 29.3102C233.125 28.1359 232.169 27.1838 230.99 27.1838C229.811 27.1838 228.855 28.1359 228.855 29.3102C228.855 30.4846 229.811 31.4366 230.99 31.4366Z" fill="#F2F2F2"/>
<path d="M222.077 6.01302C223.256 6.01302 224.212 5.06101 224.212 3.88664C224.212 2.71227 223.256 1.76025 222.077 1.76025C220.898 1.76025 219.942 2.71227 219.942 3.88664C219.942 5.06101 220.898 6.01302 222.077 6.01302Z" fill="#F2F2F2"/>
<path d="M222.077 14.4875C223.256 14.4875 224.212 13.5355 224.212 12.3611C224.212 11.1868 223.256 10.2347 222.077 10.2347C220.898 10.2347 219.942 11.1868 219.942 12.3611C219.942 13.5355 220.898 14.4875 222.077 14.4875Z" fill="#F2F2F2"/>
<path d="M222.077 22.9621C223.256 22.9621 224.212 22.0101 224.212 20.8357C224.212 19.6614 223.256 18.7094 222.077 18.7094C220.898 18.7094 219.942 19.6614 219.942 20.8357C219.942 22.0101 220.898 22.9621 222.077 22.9621Z" fill="#F2F2F2"/>
<path d="M222.077 31.4366C223.256 31.4366 224.212 30.4846 224.212 29.3102C224.212 28.1359 223.256 27.1838 222.077 27.1838C220.898 27.1838 219.942 28.1359 219.942 29.3102C219.942 30.4846 220.898 31.4366 222.077 31.4366Z" fill="#F2F2F2"/>
<path d="M213.164 6.01302C214.343 6.01302 215.299 5.06101 215.299 3.88664C215.299 2.71227 214.343 1.76025 213.164 1.76025C211.985 1.76025 211.029 2.71227 211.029 3.88664C211.029 5.06101 211.985 6.01302 213.164 6.01302Z" fill="#F2F2F2"/>
<path d="M213.164 14.4875C214.343 14.4875 215.299 13.5355 215.299 12.3611C215.299 11.1868 214.343 10.2347 213.164 10.2347C211.985 10.2347 211.029 11.1868 211.029 12.3611C211.029 13.5355 211.985 14.4875 213.164 14.4875Z" fill="#F2F2F2"/>
<path d="M213.164 22.9621C214.343 22.9621 215.299 22.0101 215.299 20.8357C215.299 19.6614 214.343 18.7094 213.164 18.7094C211.985 18.7094 211.029 19.6614 211.029 20.8357C211.029 22.0101 211.985 22.9621 213.164 22.9621Z" fill="#F2F2F2"/>
<path d="M213.164 31.4366C214.343 31.4366 215.299 30.4846 215.299 29.3102C215.299 28.1359 214.343 27.1838 213.164 27.1838C211.985 27.1838 211.029 28.1359 211.029 29.3102C211.029 30.4846 211.985 31.4366 213.164 31.4366Z" fill="#F2F2F2"/>
<path d="M221.765 79.3264C221.59 78.8475 221.519 78.3372 221.555 77.8288C221.592 77.3205 221.736 76.8256 221.978 76.3766C222.22 75.9275 222.555 75.5345 222.96 75.2233C223.365 74.9121 223.832 74.6896 224.329 74.5705C224.487 74.5336 224.647 74.5077 224.808 74.4928L232.831 60.4859L230.805 57.0195L235.848 53.1445L239.706 58.4818C240.166 59.1234 240.406 59.8957 240.39 60.684C240.375 61.4723 240.105 62.2346 239.62 62.8578L228.606 76.9026C228.646 77.0142 228.68 77.1277 228.708 77.2428C228.828 77.7384 228.841 78.2536 228.746 78.7546C228.652 79.2555 228.452 79.731 228.161 80.1498C227.869 80.5686 227.492 80.9212 227.054 81.1846C226.615 81.4481 226.126 81.6163 225.619 81.6784C225.471 81.6969 225.323 81.7062 225.174 81.7061C224.43 81.7037 223.704 81.4744 223.095 81.049C222.485 80.6235 222.021 80.0224 221.765 79.3264Z" fill="#FFB8B8"/>
<path d="M206.113 148.257L202.066 148.257L200.141 132.708L206.114 132.708L206.113 148.257Z" fill="#FFB8B8"/>
<path d="M199.175 147.105H206.98V152H194.261C194.261 151.357 194.388 150.72 194.635 150.126C194.882 149.533 195.244 148.993 195.7 148.538C196.156 148.084 196.698 147.723 197.294 147.477C197.891 147.231 198.53 147.105 199.175 147.105Z" fill="#2F2E41"/>
<path d="M239.454 148.257L235.407 148.257L233.481 132.708L239.454 132.708L239.454 148.257Z" fill="#FFB8B8"/>
<path d="M232.516 147.105H240.321V152H227.602C227.602 151.357 227.729 150.72 227.976 150.126C228.223 149.533 228.585 148.993 229.041 148.538C229.497 148.084 230.039 147.723 230.635 147.477C231.231 147.231 231.87 147.105 232.516 147.105Z" fill="#2F2E41"/>
<path d="M236.97 53.9017L227.884 57.3409L225.665 51.2031C225.371 50.3881 225.375 49.4956 225.677 48.6833C225.979 47.8711 226.56 47.1914 227.316 46.7643C228.082 46.3323 228.977 46.1871 229.84 46.355C230.704 46.5229 231.479 46.9928 232.025 47.6799L236.97 53.9017Z" fill="#123F72"/>
<path d="M206.462 135.664L198.842 133.932C198.437 133.84 198.082 133.598 197.848 133.255C197.615 132.912 197.52 132.494 197.584 132.085C200.641 112.78 203.583 101.475 211.164 87.119C211.27 86.8513 212.454 81.4181 213.227 77.8185C213.218 77.4219 213.354 77.0357 213.61 76.7317C213.866 76.4278 214.224 76.2269 214.618 76.1666L228.827 73.9884C229.041 73.9143 229.267 73.8804 229.494 73.8883L229.636 73.9152L229.634 74.0544C229.633 74.1982 229.489 74.2202 229.435 74.2286L229.246 74.2575C229.461 74.3574 229.659 74.4914 229.832 74.6542C236.058 82.1128 239.295 106.562 243.407 133.572C243.43 133.791 243.403 134.013 243.328 134.22C243.254 134.428 243.134 134.616 242.977 134.771C242.828 134.933 242.648 135.063 242.447 135.154C242.246 135.244 242.029 135.293 241.809 135.298L232.73 135.518C232.332 135.527 231.943 135.391 231.637 135.136C231.332 134.881 231.129 134.524 231.068 134.131L224.953 98.9322C224.911 98.6573 224.782 98.4029 224.585 98.2061C224.387 98.0092 224.132 97.8803 223.856 97.8379C223.58 97.7955 223.298 97.8419 223.05 97.9704C222.803 98.0988 222.603 98.3027 222.479 98.5522C217.546 108.559 212.945 117.214 208.415 134.48C208.325 134.83 208.12 135.141 207.834 135.362C207.548 135.584 207.195 135.705 206.832 135.705C206.708 135.705 206.584 135.691 206.462 135.664Z" fill="#2F2E41"/>
<path d="M213.859 78.2205C213.668 78.0858 213.508 77.9121 213.389 77.7109C213.271 77.5097 213.196 77.2856 213.172 77.0536C212.008 66.2326 212.818 57.7643 215.649 51.1648C216.148 50.0265 216.899 49.0156 217.846 48.2081C218.793 47.4005 219.912 46.8173 221.118 46.5023L228.463 46.1331L228.501 46.1514C230.158 46.96 231.51 48.2791 232.355 49.9131C233.201 51.5471 233.495 53.409 233.195 55.2227C230.832 61.4252 228.854 67.8829 230.363 73.0923C230.426 73.3101 230.445 73.5384 230.417 73.7635C230.39 73.9885 230.317 74.2057 230.203 74.4021C230.093 74.5919 229.945 74.7572 229.768 74.8878C229.591 75.0184 229.389 75.1115 229.175 75.1614L215.185 78.4761C214.959 78.5298 214.723 78.5348 214.495 78.4907C214.266 78.4466 214.049 78.3545 213.859 78.2205Z" fill="#123F72"/>
<path d="M210.697 62.6917L196.61 51.6219C196.498 51.6612 196.384 51.6948 196.268 51.7224C195.771 51.8383 195.255 51.8486 194.753 51.7528C194.252 51.657 193.776 51.4572 193.357 51.1663C192.935 50.8752 192.581 50.4977 192.318 50.0592C192.054 49.6207 191.888 49.1312 191.83 48.6234C191.735 47.8118 191.919 46.9921 192.351 46.2975C192.783 45.6028 193.438 45.074 194.21 44.7967C194.691 44.6246 195.204 44.5558 195.714 44.5948C196.224 44.6339 196.72 44.7798 197.17 45.0231C197.62 45.2664 198.013 45.6016 198.323 46.0067C198.634 46.4117 198.855 46.8776 198.972 47.3737C199.008 47.5309 199.033 47.6905 199.047 47.8512L213.071 55.9095L216.561 53.9082L220.427 58.9495L215.008 62.7963C214.374 63.243 213.612 63.474 212.835 63.4551C212.059 63.4363 211.309 63.1686 210.697 62.6917H210.697Z" fill="#FFB8B8"/>
<path d="M222.146 60.5194L214.108 55.0752L217.886 49.7462C218.387 49.0386 219.124 48.5304 219.965 48.3113C220.807 48.0923 221.699 48.1766 222.484 48.5493C223.278 48.9263 223.91 49.5738 224.267 50.3747C224.624 51.1757 224.682 52.0773 224.43 52.9168L222.146 60.5194Z" fill="#123F72"/>
<path d="M226.012 43.4005C230.49 43.4005 234.12 39.7848 234.12 35.3246C234.12 30.8644 230.49 27.2487 226.012 27.2487C221.534 27.2487 217.904 30.8644 217.904 35.3246C217.904 39.7848 221.534 43.4005 226.012 43.4005Z" fill="#FFB8B8"/>
<path d="M223.039 34.1218C220.955 35.5424 218.219 37.0027 216.091 35.4899C214.693 34.4965 214.253 32.657 214.819 31.0428C215.839 28.1398 218.639 26.8618 221.316 25.8822C224.797 24.6087 228.587 23.5956 232.18 24.5076C235.774 25.4196 238.949 28.885 238.301 32.5217C237.779 35.4462 235.01 37.8796 235.403 40.824C235.798 43.7873 239.144 45.3471 242.098 45.8767C245.052 46.4063 248.357 46.5765 250.479 48.6898C253.187 51.3856 252.511 56.2042 249.963 59.0504C247.415 61.8967 243.57 63.1869 239.844 64.064C234.907 65.2261 229.568 65.8368 224.88 63.9082C220.191 61.9796 216.543 56.788 217.901 51.9199C218.474 49.8635 219.826 48.1257 221.132 46.4338C222.438 44.7419 223.761 42.9727 224.259 40.897C224.674 39.1672 224.367 37.1589 223.215 35.8613C223.006 35.6342 222.874 35.3468 222.839 35.0404C222.803 34.734 222.866 34.4244 223.019 34.156L223.039 34.1218Z" fill="#2F2E41"/>
</svg>
