<svg width="80" height="80" viewBox="0 0 80 80" fill="none" xmlns="http://www.w3.org/2000/svg">
<path d="M79.5 40C79.5 61.8777 61.8777 79.5 40 79.5C18.1223 79.5 0.5 61.8777 0.5 40C0.5 18.1223 18.1223 0.5 40 0.5C61.8777 0.5 79.5 18.1223 79.5 40Z" fill="#490068" stroke="white"/>
<path d="M40 72.0071C22.3797 72.0071 8 57.6273 8 40.0071C8 22.3868 22.3797 8.00708 40 8.00708C57.6203 8.00708 72 22.3868 72 40.0071C72 57.6273 57.6203 72.0071 40 72.0071Z" fill="white"/>
<path d="M40 69.8611C23.5612 69.8611 10.1428 56.4435 10.1428 40.0061C10.1428 23.5687 23.5612 10.1511 40 10.1511C56.4387 10.1511 69.8571 23.5687 69.8571 40.0061C69.8571 56.4435 56.4387 69.8611 40 69.8611Z" stroke="#490068" stroke-width="2"/>
<path d="M40.1191 46.1005C41.0926 47.737 42.4547 49.0834 43.7648 50.4616C45.4385 52.2274 46.9428 54.1404 47.6317 56.5227C48.2484 58.667 48.0135 60.7547 47.2161 62.8151C46.6108 64.4018 45.8609 65.9001 45.2555 67.4777C46.1929 63.9439 44.3385 60.5325 42.8161 57.3252C41.9055 55.4773 41.2497 53.5137 40.8668 51.4884C40.5528 49.709 40.4941 47.864 40.1191 46.1005Z" fill="#490068"/>
<path d="M52.8425 59.4404C52.4224 55.8137 49.5901 52.8897 46.8707 50.4688C43.4692 47.436 39.065 44.3941 37.8363 39.7383L37.956 39.5751C38.7984 40.1961 39.6138 40.8263 40.463 41.4066H40.4766C40.7024 41.5698 40.9283 41.7284 41.1542 41.878C41.4162 42.0435 41.6804 42.1976 41.9492 42.3314C41.9492 42.3314 41.9628 42.3314 41.9718 42.3314L42.0011 42.3472C43.1683 42.9237 44.3996 43.3589 45.6691 43.6438C48.253 44.2807 50.8459 44.9381 52.5534 47.1549C55.3066 50.7227 52.3682 63.0671 52.8425 59.4404Z" fill="#490068"/>
<path d="M57.0504 38.0127H57.0865V38.0716C53.8477 38.1532 50.7105 36.4464 48.418 34.2386C46.5569 32.4434 45.4366 30.358 44.4361 28.0052C43.0561 24.757 41.4999 19.8451 37.6603 18.8069C40.8223 17.3676 44.2577 18.952 46.5004 21.3434C50.1142 25.2421 49.0549 27.6312 52.0205 33.3569C53.0143 35.2745 54.636 37.9696 57.0865 37.9923V38.0104L57.0504 38.0127Z" fill="#490068"/>
<path d="M26.9996 20.8603C24.9126 22.447 25.2288 25.5523 27.0267 27.4178C25.0911 26.9464 22.8483 26.3026 22.8573 22.4968C22.8686 19.1489 26.4327 17.0567 29.4818 17.1655C33.1362 17.2993 36.7997 19.7859 39.038 22.5444C43.9459 28.5988 42.2203 32.0238 51.3722 37.2553C53.1407 38.2662 54.8798 39.2953 56.2644 40.6553C57.5518 41.9134 58.602 43.7449 58.5388 45.6013C58.4665 47.8431 57.0142 49.5997 55.4806 51.089C55.449 51.123 55.4084 51.0686 55.4377 51.0368L55.5168 50.9552L55.4309 50.8736C55.4309 50.8736 55.4151 50.8736 55.4129 50.8578C55.6794 49.0195 55.0267 46.9364 53.8793 45.5015C52.9036 44.2775 51.4558 43.5567 50.008 43.0603C47.0018 42.0244 43.641 42.1151 40.8087 40.5828C36.8494 38.4408 36.2463 34.0706 35.5191 29.8409C35.1509 27.7238 34.7556 25.6362 33.8929 23.884C32.619 21.2615 29.344 19.0922 26.9996 20.8603ZM58.1684 47.2038C57.7374 48.3247 57.0826 49.3452 56.244 50.2027C57.084 49.3464 57.7391 48.3255 58.1684 47.2038Z" fill="#490068"/>
<path d="M27.3602 32.7609C26.4295 32.668 26.032 32.328 26.032 32.328C26.499 32.3178 26.9647 32.2747 27.4257 32.1988C27.4257 32.1829 25.316 20.4301 30.9245 22.5585C31.8912 22.928 34.0461 25.0088 34.683 29.8528C35.32 34.6967 35.3607 38.9785 36.6369 41.3971C37.6443 43.3102 38.4235 44.2531 38.6133 45.4227C38.5749 45.3706 38.5365 45.3162 38.4958 45.2663C38.4055 45.153 38.3106 45.0396 38.2157 44.9422C37.8182 44.5342 37.2671 44.0718 36.7679 43.938C36.4961 43.8656 36.2095 43.8719 35.9412 43.9562C34.2945 44.7268 30.3756 46.4858 28.9548 45.017C28.1078 44.142 28.7877 42.7095 28.5031 42.3423C28.2185 41.9751 27.3737 41.5784 27.4008 41.1885C27.4279 40.7987 28.4556 40.5357 28.345 40.3725C28.2343 40.2093 26.538 40.0846 26.748 39.5089C27.0981 38.5592 27.6515 38.4594 27.4912 38.0061C27.2653 37.3125 26.0049 37.5845 25.3521 36.9475C24.5299 36.1474 25.4199 36.0862 26.547 34.4542C26.9315 33.952 27.2083 33.3756 27.3602 32.7609Z" fill="#A06CD5"/>
<path d="M40.3452 46.6697C40.483 47.4653 40.571 48.2745 40.6614 49.0633C40.7517 49.8521 40.8398 50.6772 40.9799 51.4683C41.3569 53.4856 42.009 55.4413 42.9179 57.2801L43.268 58.0077C44.5645 60.7073 45.8995 63.4863 45.5742 66.3945C45.7617 65.9525 45.9559 65.5127 46.1457 65.082C46.4732 64.334 46.812 63.5611 47.1102 62.7859C47.9617 60.5872 48.0972 58.554 47.5235 56.5661C46.8052 54.0727 45.1789 52.1301 43.6836 50.5525L43.2319 50.0856C42.2154 49.0248 41.1674 47.9299 40.3384 46.6855L40.3452 46.6697ZM40.1125 46.1166C41.086 47.7531 42.4481 49.0996 43.7582 50.4777C45.4319 52.2435 46.9362 54.1566 47.6251 56.5389C48.2418 58.6832 48.0069 60.7708 47.2095 62.8312C46.6042 64.4179 45.8543 65.9162 45.2489 67.4938C46.1863 63.96 44.3319 60.5486 42.8095 57.3413C41.8989 55.4934 41.2431 53.5298 40.8602 51.5045C40.5462 49.7252 40.4875 47.8778 40.1125 46.1166Z" fill="#490068"/>
<path d="M37.9898 39.7224L37.9694 39.7496C38.9858 43.5894 42.1501 46.2822 45.2173 48.8935C45.8226 49.408 46.394 49.8931 46.9519 50.3918C49.6442 52.7877 52.4516 55.7117 52.9395 59.2659C53.2544 57.7255 53.465 56.1655 53.5696 54.5965C53.7413 52.1031 53.6894 48.8073 52.472 47.2297C50.7735 45.022 48.1693 44.3805 45.651 43.7617C44.3746 43.4766 43.1359 43.0422 41.9604 42.4674H41.9491L41.9152 42.4538C41.651 42.3178 41.3822 42.1614 41.1112 41.9891C40.8853 41.8418 40.6594 41.6831 40.4336 41.5176H40.4223C39.8012 41.0915 39.1846 40.6314 38.586 40.1848L38.0033 39.7473L37.9898 39.7224ZM37.9785 39.5909C38.8209 40.212 39.6363 40.8422 40.4855 41.4224H40.4991C40.7249 41.5856 40.9508 41.7443 41.1767 41.8939C41.4387 42.0594 41.7029 42.2135 41.9717 42.3472C41.9717 42.3472 41.9852 42.3472 41.9943 42.3472L42.0236 42.3631C43.1844 42.9324 44.4079 43.3623 45.669 43.6438C48.2529 44.2807 50.8458 44.9381 52.5533 47.1549C54.9587 50.2739 53.005 60.1 52.804 60.1C52.7746 60.1 52.7814 59.8983 52.8401 59.4404C52.42 55.8137 49.5877 52.8897 46.8684 50.4688C43.4669 47.436 39.0626 44.3941 37.8339 39.7383L37.9536 39.5751L37.9785 39.5909Z" fill="#490068"/>
<path d="M40.1942 18.3647C39.4398 18.3633 38.692 18.5048 37.9898 18.7817C41.2355 19.8607 42.7984 23.6914 44.061 26.7877C44.2281 27.198 44.3862 27.5833 44.5421 27.9528C45.4432 30.0472 46.5296 32.2482 48.5014 34.159C50.76 36.326 53.4365 37.6656 55.9909 37.9195C54.1186 37.2712 52.7973 35.1065 51.9254 33.4133C50.9716 31.5616 50.2146 29.6144 49.6668 27.6037C49.0141 25.405 48.4969 23.671 46.419 21.4224C44.6121 19.4867 42.3354 18.3737 40.1965 18.3737L40.1942 18.3647ZM40.1965 18.2604C42.5545 18.2604 44.8492 19.5842 46.5025 21.3454C50.1163 25.2441 49.057 27.6332 52.0226 33.3589C53.0164 35.2765 54.638 37.9716 57.0886 37.9943V38.0124V38.0713H56.8628C53.7007 38.0713 50.6561 36.3917 48.4156 34.2361C46.5545 32.4409 45.4342 30.3555 44.4336 28.0027C43.0536 24.7545 41.4975 19.8426 37.6578 18.8044C38.4537 18.4418 39.3179 18.2547 40.192 18.2559L40.1965 18.2604Z" fill="#490068"/>
<path d="M29.2424 17.2751C26.2204 17.2751 22.9793 19.3741 22.9702 22.4886C22.9702 26.0563 24.9465 26.7704 26.6969 27.2124C25.8211 26.1873 25.3758 24.8611 25.4547 23.5131C25.4862 22.9764 25.6339 22.453 25.8874 21.9793C26.141 21.5057 26.4943 21.0931 26.9228 20.7704C27.4935 20.3337 28.1927 20.1 28.9104 20.1063C31.0583 20.1063 33.0956 21.9808 33.9968 23.8304C34.8482 25.5577 35.2412 27.5637 35.632 29.8191L35.7156 30.3064C36.3931 34.3094 37.1046 38.4484 40.8652 40.4816C42.523 41.3883 44.4044 41.7215 46.2249 42.0547C47.5193 42.2616 48.7967 42.5646 50.0464 42.9614C51.8736 43.5893 53.1204 44.3758 53.9696 45.4412C55.1644 46.9326 55.7765 49.0407 55.5348 50.8246L55.5665 50.8563C55.7923 50.641 56.0024 50.4188 56.2147 50.1876L56.1627 50.14C57.1181 49.0951 57.7234 48.1567 58.0622 47.182L58.1277 47.2046C58.3071 46.6902 58.4077 46.1514 58.4259 45.6066C58.4801 43.9859 57.6421 42.1703 56.1853 40.7468C54.8437 39.4276 53.1859 38.4371 51.3158 37.3672C45.3146 33.9377 43.9572 31.2471 42.3852 28.153C41.5315 26.4666 40.6484 24.7235 38.9499 22.6314C37.0255 20.2581 33.3914 17.4361 29.4773 17.2933H29.2514L29.2424 17.2751ZM29.2514 17.1799H29.4908C33.1453 17.3137 36.8087 19.8003 39.047 22.5588C43.955 28.6132 42.2294 32.0382 51.3813 37.2697C53.1497 38.2806 54.8889 39.3097 56.2734 40.6698C57.5608 41.9278 58.6111 43.7593 58.5478 45.6157C58.4755 47.8575 57.0233 49.6141 55.4897 51.1034C55.4875 51.1068 55.4844 51.1096 55.4809 51.1116C55.4774 51.1135 55.4734 51.1146 55.4693 51.1147C55.4626 51.1136 55.4562 51.1107 55.451 51.1063C55.4457 51.1019 55.4417 51.0961 55.4394 51.0896C55.4371 51.0832 55.4366 51.0762 55.4379 51.0694C55.4392 51.0627 55.4422 51.0564 55.4468 51.0512L55.5258 50.9696L55.44 50.888C55.4359 50.8876 55.4322 50.8857 55.4293 50.8828C55.4265 50.88 55.4246 50.8762 55.4242 50.8722C55.6907 49.0339 55.0379 46.9508 53.8906 45.516C52.9149 44.2919 51.4671 43.5711 50.0193 43.0747C47.0131 42.0388 43.6523 42.1295 40.82 40.5972C36.8607 38.4552 36.2576 34.085 35.5303 29.8553C35.1622 27.7382 34.7669 25.6506 33.9042 23.8984C32.942 21.9196 30.8731 20.2196 28.9104 20.2196C28.2203 20.2154 27.5483 20.441 26.9996 20.8611C24.9126 22.4478 25.2288 25.5531 27.0267 27.4186C25.0911 26.9472 22.8483 26.3034 22.8573 22.4976C22.8573 19.2358 26.2452 17.1595 29.2424 17.1595L29.2514 17.1799ZM56.244 50.2035C57.084 49.3472 57.7391 48.3264 58.1684 47.2046C57.7374 48.3255 57.0826 49.346 56.244 50.2035Z" fill="#490068"/>
<path d="M29.6799 22.4157C29.3988 22.4094 29.1199 22.4673 28.8643 22.5851C28.6088 22.703 28.3833 22.8775 28.2049 23.0957C26.4295 25.2015 27.4166 31.4439 27.5273 32.1489C27.53 32.1654 27.53 32.1822 27.5273 32.1988V32.2894L27.4347 32.3053C27.0959 32.3597 26.7571 32.396 26.4273 32.4164C26.726 32.5381 27.0412 32.6145 27.3624 32.643L27.4866 32.6566L27.4618 32.779C27.3095 33.4094 27.0287 34.0014 26.6374 34.5176C26.3299 34.9547 25.9861 35.3649 25.6096 35.7439C25.0924 36.2811 24.9681 36.408 25.4267 36.8546C25.709 37.1288 26.1178 37.224 26.5154 37.3079C26.9965 37.4167 27.4528 37.521 27.5973 37.9539C27.6944 38.2508 27.5499 38.4299 27.3714 38.6566C27.1485 38.915 26.9734 39.2113 26.8542 39.5315C26.8452 39.5499 26.8406 39.57 26.8406 39.5905C26.8406 39.6109 26.8452 39.6311 26.8542 39.6494C26.9626 39.8557 27.5205 39.9939 27.891 40.0846C28.2614 40.1753 28.3766 40.207 28.4331 40.2909C28.4455 40.3093 28.4539 40.3301 28.4578 40.3519C28.4617 40.3738 28.461 40.3962 28.4557 40.4178C28.4285 40.5311 28.284 40.6082 28.0671 40.7261C27.8503 40.8439 27.5183 41.0207 27.5092 41.1794C27.5002 41.3381 27.8097 41.5965 28.083 41.8073C28.2696 41.9369 28.4395 42.0892 28.5889 42.2606C28.7177 42.4306 28.6883 42.714 28.6522 43.0948C28.5957 43.6796 28.5257 44.4072 29.0249 44.924C29.3659 45.2776 29.899 45.4567 30.606 45.4567C32.2436 45.4567 34.4007 44.5341 35.8802 43.8382C36.0397 43.7928 36.2046 43.7692 36.3703 43.768C36.5047 43.7676 36.6385 43.7859 36.7679 43.8224C37.3506 43.9788 37.956 44.5387 38.2677 44.8583L38.3603 44.958C38.1077 44.2782 37.7829 43.6276 37.3913 43.0177C37.127 42.5644 36.8311 42.0544 36.5081 41.431C35.5753 39.6562 35.2929 36.884 34.9676 33.6744C34.8434 32.4458 34.7147 31.181 34.5407 29.8482C33.8834 24.8456 31.6563 22.9597 30.8545 22.6537C30.4712 22.4992 30.0634 22.4147 29.6505 22.4044L29.6799 22.4157ZM29.6505 22.291C30.0774 22.3004 30.499 22.3872 30.8951 22.5472C31.8912 22.928 34.0461 25.0088 34.683 29.8527C35.32 34.6967 35.3607 38.9784 36.6369 41.397C37.6443 43.3101 38.4235 44.2531 38.6133 45.4227C38.5749 45.3705 38.5365 45.3161 38.4958 45.2663C38.4055 45.1529 38.3106 45.0396 38.2157 44.9421C37.8182 44.5341 37.2671 44.0717 36.7679 43.938C36.6479 43.9049 36.5241 43.8881 36.3997 43.8881C36.2467 43.8897 36.0947 43.9126 35.948 43.9561C34.7598 44.5137 32.3859 45.5836 30.6241 45.5836C29.9464 45.5836 29.3569 45.4249 28.9616 45.0169C28.1146 44.142 28.7945 42.7094 28.5099 42.3422C28.2253 41.975 27.3805 41.5784 27.4076 41.1885C27.4347 40.7986 28.4624 40.5357 28.3517 40.3725C28.2411 40.2093 26.5447 40.0846 26.7548 39.5089C27.1049 38.5591 27.6583 38.4594 27.4979 38.006C27.2721 37.3124 26.0117 37.5844 25.3589 36.9475C24.5367 36.1473 25.4267 36.0861 26.5538 34.4541C26.9361 33.9508 27.2107 33.3735 27.3602 32.7586C26.4295 32.6657 26.032 32.3257 26.032 32.3257C26.499 32.3155 26.9647 32.2724 27.4257 32.1965C27.4257 32.1806 25.6525 22.3001 29.6844 22.3001L29.6505 22.291Z" fill="#C19EE0"/>
</svg>
