<svg width="81" height="80" viewBox="0 0 81 80" fill="none" xmlns="http://www.w3.org/2000/svg">
<path d="M80.4789 40C80.4789 61.8777 62.8566 79.5 40.9789 79.5C19.1012 79.5 1.47888 61.8777 1.47888 40C1.47888 18.1223 19.1012 0.5 40.9789 0.5C62.8566 0.5 80.4789 18.1223 80.4789 40Z" fill="#002B4C" stroke="white"/>
<path d="M40.9789 72.0697C23.3586 72.0697 8.97891 57.676 8.97891 40.0387C8.97891 22.4015 23.3586 8.00781 40.9789 8.00781C58.5992 8.00781 72.9789 22.4015 72.9789 40.0387C72.9789 57.676 58.5992 72.0697 40.9789 72.0697Z" fill="white"/>
<path d="M40.9789 69.9257C24.5411 69.9257 11.1218 56.4947 11.1218 40.0387C11.1218 23.5827 24.5411 10.1517 40.9789 10.1517C57.4167 10.1517 70.836 23.5827 70.836 40.0387C70.836 56.4947 57.4167 69.9257 40.9789 69.9257Z" stroke="#002B4C" stroke-width="2"/>
<path d="M55.3214 44.616L43.0114 56.771L42.0176 62.3949C41.8817 63.154 42.552 63.8113 43.3208 63.6817L49.0164 62.6957L61.3263 50.5407C61.5467 50.3232 61.5467 49.9714 61.3263 49.7539L56.123 44.616C55.898 44.3984 55.5417 44.3984 55.3214 44.616ZM47.8163 55.7295C47.5585 55.4749 47.5585 55.0676 47.8163 54.813L55.0354 47.6848C55.2933 47.4302 55.7058 47.4302 55.9636 47.6848C56.2214 47.9394 56.2214 48.3467 55.9636 48.6013L48.7445 55.7295C48.4867 55.9841 48.0742 55.9841 47.8163 55.7295ZM46.1241 59.6223H48.3742V61.3025L45.3506 61.8255L43.8927 60.386L44.4224 57.4005H46.1241V59.6223Z" fill="#FFA132"/>
<path fill-rule="evenodd" clip-rule="evenodd" d="M42.1872 18.3035V28.6637C42.1872 29.6693 43.0169 30.492 44.0309 30.492H54.4789V43.5944L40.592 57.3066H26.8226C25.8009 57.3066 24.9789 56.4915 24.9789 55.4783V20.1318C24.9789 19.1186 25.8009 18.3035 26.8226 18.3035H42.1872ZM46.182 47.5558C46.689 47.5558 47.1039 47.1445 47.1039 46.6417V46.0323C47.1039 45.5295 46.689 45.1181 46.182 45.1181H33.2758C32.7687 45.1181 32.3539 45.5295 32.3539 46.0323V46.6417C32.3539 47.1445 32.7687 47.5558 33.2758 47.5558H46.182ZM46.182 42.6804C46.689 42.6804 47.1039 42.2691 47.1039 41.7663V41.1569C47.1039 40.6541 46.689 40.2428 46.182 40.2428H33.2758C32.7687 40.2428 32.3539 40.6541 32.3539 41.1569V41.7663C32.3539 42.2691 32.7687 42.6804 33.2758 42.6804H46.182ZM47.1039 36.8909V36.2815C47.1039 35.7787 46.689 35.3674 46.182 35.3674H33.2758C32.7687 35.3674 32.3539 35.7787 32.3539 36.2815V36.8909C32.3539 37.3937 32.7687 37.8051 33.2758 37.8051H46.182C46.689 37.8051 47.1039 37.3937 47.1039 36.8909Z" fill="#002B4C"/>
<path d="M54.4789 28.0543V27.5896C54.4789 27.1097 54.2868 26.645 53.9411 26.3022L46.4202 18.8368C46.0745 18.494 45.6058 18.3035 45.1142 18.3035H44.6456V28.0543H54.4789Z" fill="#002B4C"/>
<path d="M63.1655 48.7078L65.3266 46.5739C66.2078 45.7037 66.2078 44.2966 65.3266 43.431L62.5092 40.6492C61.6279 39.7836 60.2029 39.7836 59.3263 40.6492L57.1652 42.783C56.9449 43.0006 56.9449 43.3523 57.1652 43.5699L62.3686 48.7078C62.5889 48.9253 62.9452 48.9253 63.1655 48.7078Z" fill="#002B4C"/>
</svg>
