<svg width="80" height="80" viewBox="0 0 80 80" fill="none" xmlns="http://www.w3.org/2000/svg">
<path d="M79.5 40C79.5 61.8777 61.8777 79.5 40 79.5C18.1223 79.5 0.5 61.8777 0.5 40C0.5 18.1223 18.1223 0.5 40 0.5C61.8777 0.5 79.5 18.1223 79.5 40Z" fill="#002B4C" stroke="white"/>
<path d="M40 72.0071C22.3797 72.0071 8 57.6273 8 40.0071C8 22.3868 22.3797 8.00708 40 8.00708C57.6203 8.00708 72 22.3868 72 40.0071C72 57.6273 57.6203 72.0071 40 72.0071Z" fill="white"/>
<path d="M40.0001 69.8611C23.5613 69.8611 10.1429 56.4435 10.1429 40.0061C10.1429 23.5687 23.5613 10.1511 40.0001 10.1511C56.4388 10.1511 69.8572 23.5687 69.8572 40.0061C69.8572 56.4435 56.4388 69.8611 40.0001 69.8611Z" stroke="#002B4C" stroke-width="2"/>
<path d="M59.4292 57.3377V58.3422H27.4292V57.3377H30.2836C30.7343 57.3377 31.0348 57.0029 31.0348 56.5007V54.8266H32.6874C33.1381 54.8266 33.4386 54.4918 33.4386 53.9895V51.4784H53.7203V53.9895C53.7203 54.3244 54.0208 54.8266 54.4715 54.8266H56.124V56.6681C56.124 57.1703 56.4245 57.5051 56.8752 57.5051H59.4292V57.3377Z" fill="#002B4C"/>
<path d="M41.8738 35.4928L40.3898 37.1623L22.3965 55.712L19.4286 52.5585L38.5349 35.1218L40.2044 33.6378L41.8738 35.4928Z" fill="#002B4C"/>
<path d="M58.9392 34.9367L50.4063 43.2834C49.6643 44.0253 48.5514 43.8398 47.9949 43.2834C47.2529 42.5415 47.4384 41.4286 47.9949 40.8721L56.5277 32.5254C56.5277 32.5254 56.5277 32.5254 56.7132 32.3399C56.8987 32.1544 57.2697 31.969 57.4552 31.969C58.0117 31.969 58.5682 32.1545 58.9392 32.5254C59.6812 33.0819 59.4957 34.1947 58.9392 34.9367Z" fill="#FFA132"/>
<path d="M55.0442 31.5973L47.4388 38.8317L36.6801 27.7018L42.3519 22.4369L44.0999 20.4674L55.0442 31.5973Z" fill="#002B4C"/>
<path d="M43.5431 18.7979C43.5431 18.7979 43.3576 18.7979 43.5431 18.7979L35.0103 27.1447L34.8248 27.3302C34.0828 28.0721 32.9698 27.8867 32.4133 27.3302C31.6714 26.5883 31.8568 25.4753 32.4133 24.9189L40.9461 16.5721C41.1316 16.3866 41.5026 16.2011 41.8736 16.0156H42.0591C42.4301 16.0156 42.9866 16.2011 43.3576 16.5721C43.9141 17.1285 44.0996 18.056 43.5431 18.7979Z" fill="#FFA132"/>
</svg>
