<svg width="80" height="80" viewBox="0 0 80 80" fill="none" xmlns="http://www.w3.org/2000/svg">
<path d="M79.5 40C79.5 61.8777 61.8777 79.5 40 79.5C18.1223 79.5 0.5 61.8777 0.5 40C0.5 18.1223 18.1223 0.5 40 0.5C61.8777 0.5 79.5 18.1223 79.5 40Z" fill="#002B4C" stroke="white"/>
<path d="M40 72.0078C22.3797 72.0078 8 57.6281 8 40.0078C8 22.3876 22.3797 8.00781 40 8.00781C57.6203 8.00781 72 22.3876 72 40.0078C72 57.6281 57.6203 72.0078 40 72.0078Z" fill="#FFA132"/>
<path d="M40 70C23.481 70 10 56.519 10 40C10 23.481 23.481 10 40 10C56.519 10 70 23.481 70 40C70 56.519 56.519 70 40 70Z" fill="white"/>
<path d="M40 69.9257C23.5622 69.9257 10.1428 56.4947 10.1428 40.0387C10.1428 23.5827 23.5622 10.1517 40 10.1517C56.4377 10.1517 69.8571 23.5827 69.8571 40.0387C69.8571 56.4947 56.4377 69.9257 40 69.9257Z" stroke="#002B4C" stroke-width="2"/>
<path d="M24.1714 37.7507C26.7559 37.7507 28.8571 35.6988 28.8571 33.1749C28.8571 30.651 26.7559 28.599 24.1714 28.599C21.5869 28.599 19.4857 30.651 19.4857 33.1749C19.4857 35.6988 21.5869 37.7507 24.1714 37.7507ZM56.9714 37.7507C59.5559 37.7507 61.6571 35.6988 61.6571 33.1749C61.6571 30.651 59.5559 28.599 56.9714 28.599C54.3869 28.599 52.2857 30.651 52.2857 33.1749C52.2857 35.6988 54.3869 37.7507 56.9714 37.7507ZM59.3142 40.0387H54.6285C53.34 40.0387 52.1759 40.5463 51.3266 41.3685C54.2771 42.9486 56.371 45.8014 56.825 49.1904H61.6571C62.953 49.1904 64 48.1679 64 46.9024V44.6145C64 42.0906 61.8987 40.0387 59.3142 40.0387ZM40.5714 40.0387C45.1034 40.0387 48.7714 36.4566 48.7714 32.0309C48.7714 27.6052 45.1034 24.0232 40.5714 24.0232C36.0394 24.0232 32.3714 27.6052 32.3714 32.0309C32.3714 36.4566 36.0394 40.0387 40.5714 40.0387ZM46.1942 42.3266H45.5866C44.0637 43.0416 42.3725 43.4706 40.5714 43.4706C38.7703 43.4706 37.0864 43.0416 35.5562 42.3266H34.9485C30.2921 42.3266 26.5142 46.0159 26.5142 50.5631V52.6222C26.5142 54.5169 28.0884 56.0541 30.0285 56.0541H51.1142C53.0544 56.0541 54.6285 54.5169 54.6285 52.6222V50.5631C54.6285 46.0159 50.8507 42.3266 46.1942 42.3266ZM29.8162 41.3685C28.9669 40.5463 27.8028 40.0387 26.5142 40.0387H21.8285C19.2441 40.0387 17.1428 42.0906 17.1428 44.6145V46.9024C17.1428 48.1679 18.1898 49.1904 19.4857 49.1904H24.3105C24.7717 45.8014 26.8657 42.9486 29.8162 41.3685Z" fill="#002B4C"/>
</svg>
