<svg width="82" height="80" viewBox="0 0 82 80" fill="none" xmlns="http://www.w3.org/2000/svg">
<path d="M63.157 75.7512H18.843L9.97256 57.7665L1 40.3257L9.97256 22.8719L18.843 4.88721H63.157L72.0402 22.8719L81 40.3257L72.0402 57.7665L63.157 75.7512Z" fill="#002B4C" stroke="white" stroke-miterlimit="10"/>
<path d="M6.18225 62.1504V17.8374L23.7695 8.96751L40.8242 0L57.891 8.96751L75.4783 17.8374V62.1504L57.891 71.0325L40.8242 80L23.7695 71.0325L6.18225 62.1504Z" fill="white"/>
<path d="M6.86011 61.7236V18.2647L24.1085 9.56563L40.8243 0.781128L57.5521 9.56563L74.8005 18.2647V61.7236L57.5521 70.4349L40.8243 79.2194L24.1085 70.4349L6.86011 61.7236Z" fill="#002B4C"/>
<path d="M10.697 58.9863V20.4071L26.0773 12.6936L40.9943 4.88721L55.9228 12.6936L71.3031 20.4071V58.9863L55.9228 66.723L40.9943 74.5294L26.0773 66.723L10.697 58.9863Z" fill="#FFA132"/>
<path d="M11.9092 58.3099V21.0844L26.6742 13.6415L40.9945 6.10901L55.326 13.6415L70.091 21.0844V58.3099L55.326 65.7751L40.9945 73.3077L26.6742 65.7751L11.9092 58.3099Z" fill="#002B4C"/>
<path d="M14.3334 56.9569V22.4388L27.868 15.5372L40.9949 8.55249L54.1321 15.5372L67.6667 22.4388V56.9569L54.1321 63.8793L40.9949 70.864L27.868 63.8793L14.3334 56.9569Z" fill="white"/>
<path d="M60.5759 50.0172H44.9629C44.9153 51.2936 44.0157 52.079 42.8546 52.079H38.9395C37.736 52.079 36.8132 50.9534 36.8293 50.0172H21.4243C20.8577 50.0172 20.394 50.4811 20.394 51.0481V52.079C20.394 54.3469 22.2486 56.2025 24.5153 56.2025H57.485C59.7516 56.2025 61.6062 54.3469 61.6062 52.079V51.0481C61.6062 50.4811 61.1425 50.0172 60.5759 50.0172ZM57.485 26.3068C57.485 24.6058 56.094 23.2141 54.394 23.2141H27.6062C25.9062 23.2141 24.5153 24.6058 24.5153 26.3068V47.9554H57.485V26.3068ZM53.3637 43.8319H28.6365V27.3377H53.3637V43.8319Z" fill="#002B4C"/>
<path d="M38.5165 40.2778C38.114 40.6805 37.4617 40.6805 37.0592 40.2778L33.3018 36.519C32.8994 36.1163 32.8994 35.4636 33.3018 35.0609L37.0586 31.302C37.4611 30.8993 38.1134 30.8993 38.5158 31.302L39.2441 32.0307C39.6466 32.4334 39.6466 33.0861 39.2441 33.4888L36.9446 35.7902L39.2448 38.0911C39.6472 38.4938 39.6472 39.1464 39.2448 39.5491L38.5165 40.2778Z" fill="#FFA132"/>
<path d="M43.97 40.2785L43.2417 39.5498C42.8392 39.1471 42.8392 38.4944 43.2417 38.0917L45.5412 35.7902L43.2417 33.4894C42.8392 33.0867 42.8392 32.4341 43.2417 32.0314L43.97 31.3027C44.3725 30.9 45.0248 30.9 45.4272 31.3027L49.184 35.0615C49.5864 35.4642 49.5864 36.1169 49.184 36.5196L45.4272 40.2785C45.0248 40.6812 44.3725 40.6812 43.97 40.2785Z" fill="#FFA132"/>
</svg>
