<svg width="80" height="80" viewBox="0 0 80 80" fill="none" xmlns="http://www.w3.org/2000/svg">
<path d="M79.5 40C79.5 61.8777 61.8777 79.5 40 79.5C18.1223 79.5 0.5 61.8777 0.5 40C0.5 18.1223 18.1223 0.5 40 0.5C61.8777 0.5 79.5 18.1223 79.5 40Z" fill="#002B4C" stroke="white"/>
<path d="M40 72.0078C22.3797 72.0078 8 57.6281 8 40.0078C8 22.3876 22.3797 8.00781 40 8.00781C57.6203 8.00781 72 22.3876 72 40.0078C72 57.6281 57.6203 72.0078 40 72.0078Z" fill="white"/>
<path d="M40 69.8617C23.5612 69.8617 10.1428 56.4442 10.1428 40.0067C10.1428 23.5693 23.5612 10.1517 40 10.1517C56.4387 10.1517 69.8571 23.5693 69.8571 40.0067C69.8571 56.4442 56.4387 69.8617 40 69.8617Z" stroke="#002B4C" stroke-width="2"/>
<path d="M49.8133 59.3554L43.7298 53.2673C43.4553 52.9925 43.0831 52.8398 42.6926 52.8398H41.6981C43.3821 50.684 44.3827 47.973 44.3827 45.0233C44.3827 38.0069 38.7019 32.3218 31.6916 32.3218C24.6814 32.3218 19 38.0069 19 45.0233C19 52.0398 24.6808 57.7248 31.6916 57.7248C34.6385 57.7248 37.348 56.7233 39.5017 55.0377V56.0332C39.5017 56.424 39.6543 56.7966 39.9288 57.0714L46.0123 63.1595C46.5858 63.7336 47.5132 63.7336 48.0806 63.1595L49.8072 61.4312C50.3807 60.8572 50.3807 59.9295 49.8133 59.3554ZM31.6916 53.8163C26.8388 53.8163 22.906 49.887 22.906 45.0233C22.906 40.1664 26.8321 36.2303 31.6916 36.2303C36.5445 36.2303 40.4773 40.1596 40.4773 45.0233C40.4773 49.8803 36.5512 53.8163 31.6916 53.8163Z" fill="#002B4C"/>
<path fill-rule="evenodd" clip-rule="evenodd" d="M52.2698 22.6231L54.2508 20.2877C54.7976 19.8759 55.5714 20.2669 55.5714 20.955V45.9765C55.5714 46.6646 54.7924 47.0556 54.2508 46.6437L52.2698 44.3084L49.4635 46.6437C49.3209 46.7528 49.147 46.8119 48.9682 46.8119C48.7894 46.8119 48.6155 46.7528 48.473 46.6437L45.6666 44.3084L45.6649 44.3098C45.6361 42.5312 45.2495 40.8396 44.574 39.3041H51.8571C52.0841 39.3041 52.2698 39.1164 52.2698 38.8871V38.053C52.2698 37.8237 52.0841 37.636 51.8571 37.636H43.6894C42.8861 36.3562 41.8655 35.2269 40.6795 34.2998H51.8571C52.0841 34.2998 52.2698 34.1121 52.2698 33.8828V33.0487C52.2698 32.8193 52.0841 32.6317 51.8571 32.6317H39.4761C39.2492 32.6317 39.0635 32.8193 39.0635 33.0487V33.2211C38.041 32.6444 36.9324 32.2027 35.7619 31.9201V20.955C35.7619 20.2669 36.5357 19.8759 37.0825 20.2877L39.0635 22.6231L41.8698 20.2877C42.0123 20.1786 42.1862 20.1196 42.365 20.1196C42.5438 20.1196 42.7177 20.1786 42.8603 20.2877L45.6666 22.6231L48.473 20.2877C48.6155 20.1786 48.7894 20.1196 48.9682 20.1196C49.147 20.1196 49.3209 20.1786 49.4635 20.2877L52.2698 22.6231ZM51.8571 29.2955C52.0841 29.2955 52.2698 29.1078 52.2698 28.8785V28.0444C52.2698 27.815 52.0841 27.6274 51.8571 27.6274H39.4761C39.2492 27.6274 39.0635 27.815 39.0635 28.0444V28.8785C39.0635 29.1078 39.2492 29.2955 39.4761 29.2955H51.8571Z" fill="#002B4C"/>
<path d="M33.5779 44.4438L30.1268 43.5347C29.7311 43.4303 29.4543 43.0781 29.4543 42.6774C29.4543 42.1879 29.8607 41.7892 30.3591 41.7892H32.5144C32.864 41.7892 33.2014 41.8761 33.4974 42.0397C33.7458 42.1764 34.0617 42.1683 34.2741 41.9906L35.175 41.2357C35.4456 41.0088 35.4303 40.6155 35.1313 40.4182C34.4335 39.9582 33.5917 39.6929 32.726 39.6539V38.5569C32.726 38.2593 32.4515 38.0182 32.1126 38.0182H30.8858C30.5469 38.0182 30.2724 38.2593 30.2724 38.5569V39.6424C28.4606 39.6848 27 41.0263 27 42.6774C27 44.0222 27.996 45.2236 29.4214 45.5993L32.8725 46.5084C33.2681 46.6128 33.5449 46.965 33.5449 47.3656C33.5449 47.8552 33.1385 48.2538 32.6401 48.2538H30.4856C30.136 48.2538 29.7986 48.167 29.5026 48.0033C29.2542 47.8666 28.9383 47.8747 28.7259 48.0525L27.825 48.8074C27.5544 49.0343 27.5697 49.4276 27.8687 49.6249C28.5665 50.0848 29.4083 50.3501 30.274 50.3892V51.4862C30.274 51.7838 30.5485 52.0249 30.8874 52.0249H32.1142C32.4531 52.0249 32.7276 51.7838 32.7276 51.4862V50.4006C34.5394 50.3582 36 49.0175 36 47.3656C36 46.0209 35.004 44.8195 33.5779 44.4438Z" fill="#FFA132"/>
</svg>
