<svg width="84" height="84" viewBox="0 0 84 84" fill="none" xmlns="http://www.w3.org/2000/svg">
<path d="M82.396 42.3053L82.6314 42L82.396 41.6947L76.4001 33.9189L78.5807 24.2905L78.6682 23.9045L78.3124 23.7308L69.5976 19.4757L67.4179 9.85164L67.3297 9.46208H66.9303H57.3157L51.3262 1.69468L51.0772 1.37182L50.7108 1.55069L42 5.80377L33.2892 1.55069L32.9228 1.37181L32.6738 1.69468L26.6844 9.46208H17.0698H16.6704L16.5822 9.85164L14.4025 19.4757L5.68767 23.7308L5.33196 23.9045L5.41939 24.2905L7.5999 33.9189L1.60404 41.6947L1.36862 42L1.60404 42.3053L7.5999 50.0811L5.41939 59.7095L5.33196 60.0955L5.68767 60.2692L14.4025 64.5243L16.5822 74.1484L16.6704 74.5379H17.0698H26.6844L32.6738 82.3053L32.9228 82.6282L33.2892 82.4493L42 78.1962L50.7108 82.4493L51.0772 82.6282L51.3262 82.3053L57.3157 74.5379H66.9303H67.3297L67.4179 74.1484L69.5976 64.5243L78.3124 60.2692L78.6682 60.0955L78.5807 59.7095L76.4001 50.0811L82.396 42.3053ZM42 66.9028C28.5175 66.9028 17.5698 55.7612 17.5698 42C17.5698 28.2388 28.5175 17.0972 42 17.0972C55.4825 17.0972 66.4303 28.2388 66.4303 42C66.4303 55.7612 55.4825 66.9028 42 66.9028Z" fill="#002B4C" stroke="white"/>
<path d="M42 74.2766C24.3797 74.2766 10 59.61 10 41.6383C10 23.6666 24.3797 9 42 9C59.6203 9 74 23.6666 74 41.6383C74 59.61 59.6203 74.2766 42 74.2766Z" fill="#FFA132"/>
<path d="M42 71C25.481 71 12 57.519 12 41C12 24.481 25.481 11 42 11C58.519 11 72 24.481 72 41C72 57.519 58.519 71 42 71Z" fill="white"/>
<path d="M41.8571 71.9453C25.437 71.9453 12 58.269 12 41.4727C12 24.6763 25.437 11 41.8571 11C58.2773 11 71.7143 24.6763 71.7143 41.4727C71.7143 58.269 58.2773 71.9453 41.8571 71.9453Z" stroke="#002B4C" stroke-width="2"/>
<rect x="25" y="32" width="7" height="2" fill="#002B4C"/>
<rect x="39" y="32" width="7" height="2" fill="#002B4C"/>
<rect x="52" y="32" width="7" height="2" fill="#002B4C"/>
<rect x="52" y="47" width="7" height="6" fill="#002B4C"/>
<rect x="38" y="47" width="7" height="6" fill="#002B4C"/>
<rect x="25" y="47" width="7" height="6" fill="#002B4C"/>
<rect x="26" y="34" width="6" height="12" fill="#FFA132"/>
<rect x="39" y="34" width="6" height="12" fill="#FFA132"/>
<rect x="52" y="34" width="6" height="12" fill="#FFA132"/>
<rect x="24" y="53" width="36" height="3" fill="#FFA132"/>
<rect x="23" y="56" width="38" height="3" fill="#00467B"/>
<path d="M42 18.5L61.9186 31.25H22.0814L24 28.5L42 18.5Z" fill="#00467B"/>
<path d="M61.3168 32.3071C61.728 32.3071 62.1392 32.0983 62.3448 31.472C62.3448 31.2632 62.5503 31.0544 62.5503 30.8456C62.5503 30.6369 62.5503 30.6369 62.5503 30.4281C62.3447 29.593 61.1111 28.9667 60.0831 28.5491C59.8775 28.3404 59.4664 28.3404 59.2608 28.1316C57.8216 27.2965 56.1767 26.0438 54.3263 25C51.8591 23.5386 49.3919 22.0771 46.9247 20.8245C46.1023 20.407 45.2799 19.7806 44.4575 19.3631L44.0463 19.1543C43.4295 18.7368 42.6071 18.3192 41.7847 18.3192C41.5791 18.3192 41.3736 18.3192 41.168 18.3192C39.7287 18.7368 38.2895 19.5719 36.8503 20.1982C36.4391 20.407 35.8222 20.8245 35.411 21.0333C31.7102 22.9122 27.8038 25.2088 23.4862 27.9228L23.2807 28.1316C22.4583 28.5491 21.2246 29.3842 21.4302 30.6369C21.6358 32.0983 23.4862 32.3071 24.103 32.3071H24.5142C24.5142 33.1422 24.5143 33.9773 25.3367 34.3948C25.3367 36.065 25.3367 37.7352 25.3367 39.4054C25.3367 41.2843 25.3367 43.5809 25.3367 45.6686C24.5143 46.0861 24.5142 46.5037 24.5142 47.3388C24.5142 48.5914 24.5142 50.0528 24.5142 51.3055V51.5143C24.5142 51.723 24.5142 52.1406 24.5142 52.3494C23.075 52.7669 23.075 54.0195 23.075 55.2722C22.8694 55.2722 22.8695 55.2722 22.6639 55.481C22.2527 55.6897 21.8415 56.1073 21.8415 56.5248C21.6358 57.3599 21.6358 58.6126 22.047 59.2389C22.4582 59.8652 23.2806 60.074 24.103 60.074H24.3087C24.7199 60.074 25.1311 60.074 25.7479 60.074C26.3647 60.074 27.1871 60.074 27.8039 60.074C28.4207 60.074 29.0375 60.074 29.4487 60.074C30.6823 60.074 31.7103 60.074 32.9439 60.074H33.1495C34.5887 60.074 36.0278 60.074 37.467 60.074C39.1118 60.074 40.5511 60.074 41.9903 60.2828C43.6351 60.2828 45.4855 60.2828 47.1303 60.2828C49.1863 60.2828 51.2424 60.2828 53.504 60.2828C55.7656 60.2828 57.8216 60.2828 59.672 60.2828C60.7 60.2828 61.5224 59.8652 61.9336 59.2389C62.3448 58.6126 62.3447 57.7775 62.1391 56.7336C61.9335 56.1073 61.5224 55.6897 60.9056 55.481V55.2722C60.9056 54.4371 60.9055 53.3932 60.0831 52.7669C59.8775 52.7669 59.672 52.5581 59.672 52.5581C59.672 52.1406 59.672 51.723 59.672 51.3055C59.672 50.0528 59.672 48.8002 59.672 47.5476C59.672 46.7125 59.4664 46.2949 58.8495 45.8774C58.8495 43.1633 58.644 40.4492 58.644 37.7352V34.3948C58.8496 34.3948 59.0552 34.186 59.2608 33.9773C59.672 33.5597 59.672 32.9334 59.672 32.3071C59.8776 32.3071 60.0832 32.3071 60.2888 32.3071C60.4944 32.5158 60.9056 32.5158 61.3168 32.3071ZM59.672 56.7336C60.0832 56.7336 60.4944 56.7336 60.7 56.9424C60.9056 57.1511 60.9056 57.3599 60.9056 57.5687C60.9056 58.195 60.4944 58.4038 59.672 58.4038C57.8216 58.4038 55.7655 58.6126 53.2983 58.6126C51.4479 58.6126 49.5975 58.6126 47.7471 58.6126C46.1023 58.6126 44.2519 58.6126 42.4015 58.6126C41.3735 58.6126 40.3455 58.6126 39.3175 58.6126C38.2895 58.6126 37.0559 58.6126 36.0279 58.6126C34.5887 58.6126 33.1495 58.6126 31.5047 58.6126C29.6543 58.6126 27.8038 58.6126 26.159 58.6126C25.9534 58.6126 25.7478 58.6126 25.5422 58.6126C25.3366 58.6126 25.1311 58.6126 24.9255 58.6126C24.1031 58.6126 23.6919 58.4038 23.6919 57.5687C23.6919 57.3599 23.6919 56.9424 23.6919 56.9424C23.6919 56.9424 24.1031 56.7336 24.3087 56.7336C24.9255 56.5248 25.5423 56.5248 26.3647 56.5248H26.7759C27.8039 56.5248 28.8318 56.5248 29.6542 56.5248C30.4766 56.5248 31.2991 56.5248 32.1215 56.5248C33.9719 56.5248 35.8223 56.5248 37.8783 56.5248C39.7287 56.5248 41.5791 56.5248 43.4295 56.5248C46.9247 56.5248 50.6255 56.5248 54.9431 56.5248C54.9431 56.5248 58.4383 56.5248 59.0551 56.5248L59.672 56.7336ZM58.8495 53.8108C59.2607 54.0195 59.4663 54.4371 59.4663 55.0634C59.0551 55.0634 58.4383 55.0634 58.0271 55.0634C57.6159 55.0634 57.4103 55.0634 56.9991 55.0634H56.7935C55.7655 55.0634 54.532 55.0634 53.0928 55.0634C51.6536 55.0634 50.2143 55.0634 48.7751 55.0634C47.5415 55.0634 46.3079 55.0634 45.0743 55.0634H44.4575C42.8127 55.0634 40.9623 55.0634 39.3175 55.0634C37.6727 55.0634 35.8223 55.0634 34.1775 55.0634H33.1495C32.3271 55.0634 31.7103 55.0634 30.8879 55.0634C29.8599 55.0634 28.8319 55.0634 28.0095 55.0634C27.8039 55.0634 27.5982 55.0634 27.187 55.0634C26.5702 55.0634 25.5423 55.0634 24.7199 55.0634C24.7199 54.2283 24.9255 54.0195 25.7479 53.8108C25.9535 53.8108 26.3647 53.8108 26.9815 53.8108C27.1871 53.8108 27.3926 53.8108 27.5982 53.8108C28.0094 53.8108 28.2151 53.8108 28.4207 53.8108C29.0375 53.8108 29.6543 53.8108 30.4767 53.8108C31.7103 53.8108 32.9439 53.8108 33.9719 53.8108H36.0279C39.3175 53.8108 42.6071 54.0195 45.8967 54.0195H46.308C47.5416 54.0195 48.7751 54.0195 50.2143 54.0195C51.2423 54.0195 52.2704 54.0195 53.504 54.0195H53.7095C54.1207 54.0195 54.5319 54.0195 54.9431 54.0195C55.3543 54.0195 55.7655 54.0195 56.3823 54.0195C56.5879 54.0195 56.7936 54.0195 57.2048 54.0195C57.4104 54.0195 57.8215 54.0195 58.0271 54.0195C58.4383 53.8108 58.6439 53.8108 58.8495 53.8108ZM26.3647 47.3388C26.3647 47.3388 26.5703 47.3388 26.7759 47.3388C26.9815 47.3388 26.9814 47.3388 27.187 47.3388C27.3926 47.3388 27.3926 47.3388 27.5982 47.3388C28.0094 47.3388 28.6262 47.3388 29.243 47.3388C29.4486 47.3388 29.6543 47.3388 30.0655 47.3388C30.4767 47.3388 30.8878 47.3388 31.299 47.3388C31.5046 47.3388 31.7103 47.3388 31.7103 47.3388C32.1215 47.5476 31.9159 48.1739 31.9159 48.5914C31.9159 48.8002 31.9159 48.8002 31.9159 49.009C31.9159 49.8441 31.9159 50.8879 31.9159 51.723V52.3494H31.0935C30.6823 52.3494 30.0655 52.3494 29.4487 52.3494C28.8319 52.3494 28.0095 52.3494 27.3927 52.3494C26.7759 52.3494 26.3647 52.3494 25.9535 52.3494C25.9535 51.3055 25.9535 50.0528 25.9535 49.009V48.8002C25.9535 48.5914 25.9535 48.5914 25.9535 48.3827C25.9535 47.7563 25.9535 47.3388 26.3647 47.3388ZM30.271 33.3509C30.0654 33.3509 29.8598 33.3509 29.6542 33.3509C29.4486 33.3509 29.243 33.3509 29.243 33.3509H28.6262C28.0094 33.3509 27.5983 33.3509 26.9815 33.3509C26.1591 33.3509 25.9535 33.1422 25.9535 32.5158C27.8039 32.5158 29.6542 32.5158 31.7103 32.5158C31.7103 32.9334 31.7103 33.1422 31.5047 33.3509C31.2991 33.3509 30.4766 33.3509 30.271 33.3509ZM31.0935 45.6686C30.8879 45.6686 30.6823 45.6686 30.4767 45.6686C30.2711 45.6686 29.8598 45.6686 29.6542 45.6686H29.4487C29.2431 45.6686 28.8318 45.6686 28.6262 45.6686C28.215 45.6686 27.8038 45.6686 27.5982 45.6686C27.3926 45.6686 27.1871 45.6686 26.9815 45.6686C26.9815 43.5809 26.9815 41.7019 26.9815 39.8229C26.9815 38.3615 26.9815 36.6913 26.9815 35.0211C27.1871 35.0211 27.1871 35.0211 27.3927 35.0211C28.0095 35.0211 28.4207 35.0211 29.0375 35.0211C29.4487 35.0211 29.6543 35.0211 29.8599 35.0211H30.271C30.4766 35.0211 30.6823 35.0211 31.0935 35.0211V38.1527C30.8879 40.4492 31.0935 42.9545 31.0935 45.6686ZM33.1495 32.5158C34.5887 32.5158 36.0279 32.5158 37.6727 32.3071C37.6727 33.1422 37.6726 34.186 38.495 34.6036C38.495 36.2738 38.495 37.944 38.495 39.6141C38.495 41.7019 38.495 43.7896 38.495 45.6686C37.6726 46.0861 37.6727 46.5037 37.6727 47.3388C37.6727 48.5914 37.6727 50.0528 37.6727 51.3055V51.5143C37.6727 51.723 37.6727 51.9318 37.6727 52.1406C36.2335 52.1406 34.7942 52.1406 33.355 52.1406C33.355 51.723 33.355 51.5143 33.355 51.0967C33.355 49.8441 33.355 48.5914 33.355 47.3388C33.355 46.5037 33.1495 46.0861 32.5327 45.6686C32.5327 42.9545 32.327 40.2405 32.327 37.5264V34.3948C32.5326 34.3948 32.7383 34.186 32.9439 33.9773C33.3551 33.7685 33.3551 32.9334 33.1495 32.5158ZM39.3175 47.3388C39.3175 47.3388 39.5231 47.3388 39.7287 47.3388C39.9343 47.3388 39.9343 47.3388 40.1399 47.3388C40.3455 47.3388 40.3454 47.3388 40.551 47.3388C40.9622 47.3388 41.5792 47.3388 42.196 47.3388C42.4016 47.3388 42.6071 47.3388 43.0183 47.3388C43.4295 47.3388 43.8408 47.3388 44.252 47.3388C44.4576 47.3388 44.6631 47.3388 44.6631 47.3388C45.0743 47.5476 44.8687 48.1739 44.8687 48.5914C44.8687 48.8002 44.8687 48.8002 44.8687 49.009C44.8687 49.8441 44.8687 50.8879 44.8687 51.723V52.5581C42.8127 52.5581 40.9624 52.5581 39.1119 52.5581C39.1119 51.5143 39.1119 50.4704 39.1119 49.4265V49.009C39.1119 48.8002 39.1119 48.8002 39.1119 48.5914C39.1119 47.7563 39.1119 47.3388 39.3175 47.3388ZM39.9343 35.0211C40.1399 35.0211 40.1399 35.0211 40.3455 35.0211C40.9623 35.0211 41.3735 35.0211 41.9903 35.0211C42.4015 35.0211 42.6071 35.0211 42.8127 35.0211H43.224C43.4296 35.0211 43.6351 35.0211 44.0463 35.0211V37.944C44.0463 40.4492 44.0464 43.1633 44.252 45.8774C44.0464 45.8774 43.8407 45.8774 43.6351 45.8774C43.4295 45.8774 43.0183 45.8774 42.8127 45.8774H42.6071C42.4015 45.8774 41.9903 45.8774 41.7847 45.8774C41.3735 45.8774 40.9623 45.8774 40.7567 45.8774C40.5511 45.8774 40.3455 45.8774 40.1399 45.8774C40.1399 43.9984 40.1399 41.9107 40.1399 40.0317C39.9343 38.1527 39.9343 36.4825 39.9343 35.0211ZM43.4295 33.3509C43.2239 33.3509 43.0183 33.3509 42.8127 33.3509C42.6071 33.3509 42.4015 33.3509 42.4015 33.3509H41.7847C41.1679 33.3509 40.7568 33.3509 40.1399 33.3509C39.7287 33.3509 39.3175 33.3509 39.3175 33.1422C39.1119 32.9334 39.1119 32.7246 39.1119 32.3071C40.7568 32.3071 42.1959 32.3071 43.8407 32.3071H44.8687C44.8687 32.7246 44.8687 33.1422 44.6631 33.1422C44.2519 33.3509 43.6351 33.3509 43.4295 33.3509ZM46.308 32.5158C47.7472 32.3071 49.1863 32.3071 50.8311 32.5158C50.8311 33.3509 50.8311 34.186 51.6535 34.8124C51.6535 36.4825 51.6535 38.1527 51.6535 39.8229C51.6535 41.7019 51.6535 43.9984 51.6535 46.0861C50.8311 46.5037 50.8311 46.9212 50.8311 47.7563C50.8311 49.009 50.8311 50.4704 50.8311 51.723C50.8311 51.9318 50.8311 52.3493 50.8311 52.7669H50.42C49.1864 52.7669 47.9527 52.7669 46.7191 52.7669H46.5135C46.5135 52.3493 46.5135 51.9318 46.5135 51.5143C46.5135 50.2616 46.5135 49.009 46.5135 47.7563C46.5135 46.9212 46.3079 46.5037 45.6911 46.0861C45.6911 43.3721 45.4855 40.658 45.4855 38.1527V34.8124C45.6911 34.8124 45.8967 34.6036 46.1023 34.3948C46.3079 33.7685 46.308 32.9334 46.308 32.5158ZM56.3823 33.3509C56.1767 33.3509 55.9711 33.3509 55.7655 33.3509C55.5599 33.3509 55.3543 33.3509 55.3543 33.3509H54.7375C54.1207 33.3509 53.7096 33.3509 53.0928 33.3509C52.476 33.3509 52.2703 33.1422 52.2703 33.1422C52.2703 32.9334 52.0648 32.7246 52.0648 32.3071H52.6815C53.2983 32.3071 53.7095 32.3071 54.3263 32.3071C55.3543 32.3071 56.3824 32.3071 57.2048 32.3071H57.8215C57.8215 32.7246 57.8216 32.9334 57.616 33.1422C57.4104 33.3509 56.5879 33.3509 56.3823 33.3509ZM57.2048 45.6686C56.9992 45.6686 56.7936 45.6686 56.588 45.6686C56.3824 45.6686 55.9711 45.6686 55.7655 45.6686H55.56C55.3544 45.6686 54.9431 45.6686 54.7375 45.6686C54.3263 45.6686 53.9151 45.6686 53.7095 45.6686C53.5039 45.6686 53.2984 45.6686 53.0928 45.6686C53.0928 43.7896 53.0928 41.7019 53.0928 39.8229C53.0928 38.3615 53.0928 36.6913 53.0928 35.0211C53.2984 35.0211 53.2984 35.0211 53.504 35.0211C54.1208 35.0211 54.532 35.0211 55.1488 35.0211C55.56 35.0211 55.7655 35.0211 55.9711 35.0211H56.3823C56.5879 35.0211 56.7936 35.0211 57.2048 35.0211V37.944C56.9992 40.2405 56.9992 42.9545 57.2048 45.6686ZM52.476 47.3388C52.476 47.3388 52.6815 47.3388 52.8871 47.3388C53.0927 47.3388 53.0927 47.3388 53.2983 47.3388C53.5039 47.3388 53.5039 47.3388 53.7095 47.3388C54.1207 47.3388 54.7375 47.3388 55.3543 47.3388C55.5599 47.3388 55.7656 47.3388 56.1768 47.3388C56.588 47.3388 56.9991 47.3388 57.4103 47.3388C57.6159 47.3388 57.8215 47.3388 57.8215 47.3388C58.2327 47.5476 58.0271 48.1739 58.0271 48.5914C58.0271 48.8002 58.0271 48.8002 58.0271 49.009C58.0271 49.8441 58.0271 50.6792 58.0271 51.723V52.5581C57.6159 52.5581 56.9992 52.5581 56.588 52.5581C56.1768 52.5581 55.7655 52.5581 55.3543 52.5581C54.9431 52.5581 54.532 52.5581 54.1208 52.5581C53.504 52.5581 53.0927 52.5581 52.2703 52.5581C52.2703 51.5143 52.2703 50.4704 52.2703 49.4265V49.009C52.2703 48.8002 52.2703 48.8002 52.2703 48.5914C52.0647 47.7563 52.0648 47.3388 52.476 47.3388ZM58.8495 31.0544C58.4383 31.0544 58.0272 31.0544 57.616 31.0544C57.2048 31.0544 56.9992 31.0544 56.588 31.0544C54.7376 31.0544 52.8872 31.0544 51.0368 31.0544C49.1863 31.0544 47.1304 31.0544 45.28 31.0544H44.6631C41.3735 31.0544 38.0839 31.0544 34.9999 31.0544L24.103 31.2632H23.8975C23.6919 31.2632 23.075 31.2632 23.075 31.0544C23.075 31.0544 23.0751 30.8456 23.6919 30.0106C23.6919 29.8018 24.1031 29.8018 24.3087 29.593C24.5143 29.593 24.5143 29.3842 24.7199 29.3842L26.7759 28.1316C28.4207 27.0877 29.8598 26.2526 31.299 25.4175C34.1774 23.7473 37.0559 22.2859 39.7287 20.8245C39.9343 20.8245 40.1399 20.6157 40.3455 20.407C40.9623 19.9894 41.5791 19.7806 41.9903 19.7806H42.196C42.6072 19.7806 43.0183 20.1982 43.4295 20.407C43.6351 20.6157 43.8407 20.6157 44.0463 20.8245C44.6631 21.242 45.2799 21.4508 45.8967 21.8684C46.7191 22.2859 47.3359 22.7035 48.1583 23.121C51.0367 24.7912 53.9151 26.6702 56.3823 28.1316C57.4103 28.7579 58.4384 29.3842 59.672 30.2193H59.8775C60.0831 30.4281 60.4943 30.6369 60.4943 30.6369C60.4943 30.6369 60.2887 30.8456 60.0831 30.8456C59.6719 31.0544 59.4664 31.0544 58.8495 31.0544Z" fill="#002B4C"/>
<circle cx="41.75" cy="25.75" r="4.75" fill="#002B4C"/>
<path d="M41.75 21.6L42.8913 24.1568L45.5 24.4977L43.7066 26.3727L44.0327 29.1L41.75 27.9068L39.4674 29.1L39.9566 26.3727L38 24.4977L40.6087 24.1568L41.75 21.6Z" fill="#FFA132"/>
</svg>
