<svg width="80" height="80" viewBox="0 0 80 80" fill="none" xmlns="http://www.w3.org/2000/svg">
<path d="M79.5 40C79.5 61.8777 61.8777 79.5 40 79.5C18.1223 79.5 0.5 61.8777 0.5 40C0.5 18.1223 18.1223 0.5 40 0.5C61.8777 0.5 79.5 18.1223 79.5 40Z" fill="#002B4C" stroke="white"/>
<path d="M40 72.0077C22.3797 72.0077 8 57.6279 8 40.0077C8 22.3874 22.3797 8.00769 40 8.00769C57.6203 8.00769 72 22.3874 72 40.0077C72 57.6279 57.6203 72.0077 40 72.0077Z" fill="white"/>
<path d="M40 69.0001C24.0316 69.0001 11 55.9685 11 40.0001C11 24.0318 24.0316 11.0001 40 11.0001C55.9684 11.0001 69 24.0318 69 40.0001C69 55.9685 55.9684 69.0001 40 69.0001Z" fill="white"/>
<path d="M39.8571 69.8617C23.4184 69.8617 10 56.4442 10 40.0067C10 23.5693 23.4184 10.1517 39.8571 10.1517C56.2959 10.1517 69.7143 23.5693 69.7143 40.0067C69.7143 56.4442 56.2959 69.8617 39.8571 69.8617Z" stroke="#002B4C" stroke-width="2"/>
<circle cx="21" cy="45" r="2" fill="#FFA132"/>
<path d="M62 45C62 46.1046 61.1046 47 60 47C58.8954 47 58 46.1046 58 45C58 43.8954 58.8954 43 60 43C61.1046 43 62 43.8954 62 45Z" fill="#FFA132"/>
<path d="M48.2691 26.3649H42.2083C41.6438 26.3649 41.1005 26.5706 40.6842 26.941L33.7484 33.1142C33.7413 33.1211 33.7343 33.1348 33.7272 33.1417C32.556 34.2117 32.5771 35.9196 33.5791 36.9827C34.4751 37.9362 36.359 38.1899 37.5373 37.1679C37.5444 37.1611 37.5585 37.1611 37.5656 37.1542L43.2031 32.1334C43.6617 31.7287 44.3814 31.7561 44.7977 32.202C45.2211 32.6478 45.1858 33.3406 44.7272 33.7521L42.8856 35.3914L53.1588 43.4989C53.3634 43.6635 53.5468 43.8418 53.7162 44.027V30.7547L49.8637 27.0096C49.4475 26.5981 48.8689 26.3649 48.2691 26.3649ZM55.9811 30.7684V46.1259C55.9811 47.34 56.9901 48.3208 58.2389 48.3208H62.7546V30.7684H55.9811ZM59.3678 46.1259C58.7469 46.1259 58.2389 45.6321 58.2389 45.0285C58.2389 44.4249 58.7469 43.931 59.3678 43.931C59.9888 43.931 60.4968 44.4249 60.4968 45.0285C60.4968 45.6321 59.9888 46.1259 59.3678 46.1259ZM17.5978 48.314H22.1135C23.3623 48.314 24.3713 47.3331 24.3713 46.1191V30.7684H17.5978V48.314ZM20.9845 43.931C21.6054 43.931 22.1135 44.4249 22.1135 45.0285C22.1135 45.6321 21.6054 46.1259 20.9845 46.1259C20.3636 46.1259 19.8556 45.6321 19.8556 45.0285C19.8556 44.418 20.3636 43.931 20.9845 43.931ZM51.7406 45.2068L41.2063 36.8936L39.0896 38.7798C36.994 40.6386 33.7837 40.4603 31.9139 38.478C30.0159 36.4615 30.1641 33.3406 32.2244 31.5023L37.996 26.3649H32.0832C31.4835 26.3649 30.912 26.5981 30.4886 27.0096L26.6291 30.7547V46.1122H27.9203L34.3058 51.7298C36.2391 53.2594 39.0825 52.9713 40.656 51.0919L40.6701 51.0782L41.9331 52.1413C43.0549 53.033 44.713 52.8616 45.6232 51.771L47.8387 49.1233L48.2198 49.4251C49.1864 50.1865 50.6117 50.0493 51.3948 49.1028L52.0651 48.3003C52.8554 47.3537 52.7072 45.975 51.7406 45.2068Z" fill="#002B4C"/>
</svg>
