<svg width="80" height="80" viewBox="0 0 80 80" fill="none" xmlns="http://www.w3.org/2000/svg">
<path d="M20.3536 5.61237L74.0286 19.9946L59.6464 73.6697L5.97136 59.2875L20.3536 5.61237Z" fill="#002B4C" stroke="white"/>
<path d="M59.6464 5.61237L74.0286 59.2875L20.3536 73.6697L5.97136 19.9946L59.6464 5.61237Z" fill="#002B4C" stroke="white"/>
<path d="M40 0.707107L79.2929 40L40 79.2929L0.707107 40L40 0.707107Z" fill="#002B4C" stroke="white"/>
<path d="M40 4L76 40L40 76L4 40L40 4Z" fill="#002B4C"/>
<path d="M40 4L76 40L40 76L4 40L40 4Z" fill="#002B4C"/>
<path d="M40 4L76 40L40 76L4 40L40 4Z" fill="#002B4C"/>
<path d="M40 5.70711L74.2929 40L40 74.2929L5.7071 40L40 5.70711Z" fill="#002B4C" stroke="#DF9505"/>
<path d="M40 9.11768L70.8824 40L40 70.8824L9.11764 40L40 9.11768Z" fill="white"/>
<path d="M46.2275 42.2773L46.2099 42.2949L46.195 42.3148C45.8525 42.7732 45.5438 43.1825 45.1408 43.4858L45.1326 43.492L45.1247 43.4987C43.7223 44.6898 41.8904 45.4464 39.8431 45.4464C36.0723 45.4464 32.9811 42.9717 32.3254 39.787C32.3298 39.7303 32.3464 39.6721 32.3697 39.6346C32.3815 39.6157 32.3904 39.6094 32.3933 39.6076L32.3934 39.6076C32.3947 39.6068 32.4018 39.6022 32.4239 39.6022H48.6113C48.8942 39.6022 49.1475 39.4638 49.3229 39.2877C49.4984 39.1115 49.6357 38.8578 49.6357 38.5752V38.5739V38.5726V38.5713V38.5699V38.5686V38.5673V38.566V38.5646V38.5633V38.562V38.5607V38.5594V38.558V38.5567V38.5554V38.5541V38.5527V38.5514V38.5501V38.5488V38.5474V38.5461V38.5448V38.5435V38.5421V38.5408V38.5395V38.5382V38.5369V38.5355V38.5342V38.5329V38.5316V38.5302V38.5289V38.5276V38.5263V38.5249V38.5236V38.5223V38.5209V38.5196V38.5183V38.517V38.5156V38.5143V38.513V38.5117V38.5103V38.509V38.5077V38.5063V38.505V38.5037V38.5024V38.501V38.4997V38.4984V38.497V38.4957V38.4944V38.493V38.4917V38.4904V38.489V38.4877V38.4864V38.485V38.4837V38.4824V38.481V38.4797V38.4784V38.477V38.4757V38.4744V38.473V38.4717V38.4703V38.469V38.4677V38.4663V38.465V38.4637V38.4623V38.461V38.4596V38.4583V38.4569V38.4556V38.4543V38.4529V38.4516V38.4502V38.4489V38.4475V38.4462V38.4448V38.4435V38.4422V38.4408V38.4395V38.4381V38.4368V38.4354V38.4341V38.4327V38.4314V38.43V38.4287V38.4273V38.4259V38.4246V38.4232V38.4219V38.4205V38.4192V38.4178V38.4165V38.4151V38.4137V38.4124V38.411V38.4097V38.4083V38.4069V38.4056V38.4042V38.4028V38.4015V38.4001V38.3987V38.3974V38.396V38.3946V38.3933V38.3919V38.3905V38.3892V38.3878V38.3864V38.3851V38.3837V38.3823V38.3809V38.3796V38.3782V38.3768V38.3754V38.374V38.3727V38.3713V38.3699V38.3685V38.3671V38.3658V38.3644V38.363V38.3616V38.3602V38.3588V38.3574V38.3561V38.3547V38.3533V38.3519V38.3505V38.3491V38.3477V38.3463V38.3449V38.3435V38.3421V38.3407V38.3393V38.3379V38.3365V38.3351V38.3337V38.3323V38.3309V38.3295V38.3281V38.3267V38.3253V38.3239V38.3225V38.3211V38.3196V38.3182V38.3168V38.3154V38.314V38.3126V38.3111V38.3097V38.3083V38.3069V38.3055V38.304V38.3026V38.3012V38.2998V38.2983V38.2969V38.2955V38.2941V38.2926V38.2912V38.2898V38.2883V38.2869V38.2855V38.284V38.2826V38.2811V38.2797V38.2783V38.2768V38.2754V38.2739V38.2725V38.271V38.2696V38.2681V38.2667V38.2652V38.2638V38.2623V38.2609V38.2594V38.258V38.2565V38.255V38.2536V38.2521V38.2507V38.2492V38.2477V38.2463V38.2448V38.2433V38.2419V38.2404V38.2389V38.2374V38.236V38.2345V38.233V38.2315V38.23V38.2286V38.2271V38.2256V38.2241V38.2226V38.2211V38.2196V38.2182V38.2167V38.2152V38.2137V38.2122V38.2107V38.2092V38.2077V38.2062V38.2047V38.2032V38.2017V38.2002V38.1987V38.1971V38.1956V38.1941V38.1926V38.1911V38.1896V38.1881V38.1865V38.185V38.1835V38.182V38.1804V38.1789V38.1774V38.1759V38.1743V38.1728V38.1713V38.1697V38.1682V38.1667V38.1651V38.1636V38.162V38.1605V38.1589V38.1574V38.1558V38.1543V38.1527V38.1512V38.1496V38.1481V38.1465V38.145V38.1434V38.1418V38.1403V38.1387V38.1371V38.1356V38.134V38.1324V38.1309V38.1293V38.1277V38.1261V38.1246V38.123V38.1214V38.1198V38.1182V38.1166V38.115V38.1135V38.1119V38.1103V38.1087V38.1071V38.1055V38.1039V38.1023V38.1007V38.0991V38.0974V38.0958V38.0942V38.0926V38.091V38.0894V38.0878V38.0861V38.0845V38.0829V38.0813V38.0797V38.078V38.0764V38.0748V38.0731V38.0715V38.0699V38.0682V38.0666V38.0649V38.0633V38.0616V38.06V38.0583V38.0567V38.055V38.0534V38.0517V38.0501V38.0484V38.0467V38.0451V38.0434V38.0417V38.0401V38.0384V38.0367V38.035V38.0334V38.0317V38.03V38.0283V38.0266V38.025V38.0233V38.0216V38.0199V38.0182V38.0165V38.0148V38.0131V38.0114V38.0097V38.008V38.0063V38.0046V38.0028V38.0011V37.9994V37.9977V37.996V37.9942V37.9925V37.9908V37.9891V37.9873V37.9856V37.9839V37.9821V37.9804V37.9786V37.9769V37.9752V37.9734V37.9717V37.9699V37.9682V37.9664V37.9646V37.9629V37.9611V37.9594V37.9576V37.9558V37.9541V37.9523V37.9505V37.9487V37.947V37.9452V37.9434V37.9416V37.9398V37.938V37.9362V37.9344V37.9326V37.9308V37.929V37.9272V37.9254V37.9236V37.9218V37.92V37.9182V37.9164V37.9146V37.9127V37.9109V37.9091V37.9073V37.9054V37.9036V37.9018V37.8999V37.8981V37.8963V37.8944V37.8926V37.8907V37.8889V37.887V37.8852V37.8833V37.8814V37.8796V37.8777V37.8759V37.874V37.8721V37.8702V37.8684V37.8665V37.8646V37.8627V37.8608V37.8589V37.8571V37.8552V37.8533V37.8514V37.8495V37.8476V37.8457V37.8438V37.8419V37.8399V37.838V37.8361V37.8342V37.8323V37.8303V37.8284V37.8265V37.8246V37.8226V37.8207V37.8187V37.8168V37.8149V37.8129V37.811V37.809V37.8071V37.8051V37.8031V37.8012V37.7992V37.7973V37.7953V37.7933V37.7913V37.7894V37.7874V37.7854V37.7676L49.6339 37.7498C49.1633 33.1446 44.9412 29.65 39.8431 29.65C34.8587 29.65 30.7546 33.0284 30.1661 37.4002L30.1638 37.4173C30.1572 37.4201 30.1486 37.4233 30.1379 37.4261C30.1165 37.4319 30.0908 37.4354 30.0633 37.4354H15.6745C15.3916 37.4354 15.1383 37.5738 14.9629 37.7499C14.7873 37.9261 14.65 38.1797 14.65 38.4624V38.5752C14.65 38.8579 14.7873 39.1115 14.9629 39.2877C15.1383 39.4638 15.3916 39.6022 15.6745 39.6022H25.6787C25.6793 39.6023 25.6851 39.6029 25.6958 39.6079C25.709 39.6141 25.725 39.6249 25.7404 39.6403C25.7557 39.6557 25.7665 39.6718 25.7728 39.6854C25.7785 39.6975 25.7788 39.7038 25.7788 39.7038L25.7788 39.7189L25.7802 39.7342C26.1283 43.6938 28.4483 47.0585 31.7892 49.14L31.8029 49.1485L31.8173 49.1557C32.0124 49.2536 32.2422 49.2693 32.4404 49.1698C32.6468 49.0662 32.7739 48.8582 32.7739 48.6172V47.6018C32.7739 47.5992 32.7739 47.5961 32.774 47.5923C32.7747 47.5514 32.7766 47.4403 32.7232 47.3329C32.6956 47.2776 32.6612 47.2363 32.6371 47.2095C32.615 47.1848 32.588 47.1577 32.5636 47.1332L32.5594 47.1291L32.5374 47.107L32.5119 47.0891C30.0155 45.3461 28.3871 42.739 27.9426 39.8068C27.9435 39.8044 27.9446 39.8015 27.9462 39.7982C27.9525 39.7847 27.9633 39.7685 27.9786 39.7531C27.994 39.7377 28.01 39.727 28.0232 39.7208C28.0339 39.7158 28.0397 39.7151 28.0403 39.715H30.0633C30.0908 39.715 30.1165 39.7186 30.1379 39.7243C30.1486 39.7272 30.1572 39.7303 30.1638 39.7332L30.1661 39.7502C30.755 44.1244 34.9738 47.5004 39.8431 47.5004C42.9751 47.5004 45.6502 46.2194 47.5127 44.2357C47.5149 44.2337 47.5165 44.2324 47.5175 44.2316C47.5188 44.2313 47.5209 44.2309 47.524 44.2306C47.5272 44.2302 47.5315 44.2297 47.5371 44.2294C47.5525 44.2284 47.5696 44.2283 47.5995 44.2283H50.0726C50.0764 44.2283 50.0843 44.2291 50.0974 44.2384C50.112 44.2486 50.1277 44.2661 50.1387 44.2882C50.1456 44.3021 50.1485 44.3133 50.1496 44.3206L50.1403 44.33L50.1227 44.3551C49.3734 45.4296 48.413 46.3996 47.3466 47.1596C47.299 47.1743 47.2514 47.1976 47.2068 47.2324C47.1202 47.3 47.0778 47.3854 47.0566 47.4492C47.0236 47.5486 47.0244 47.6594 47.0247 47.7046C47.0247 47.7084 47.0248 47.7118 47.0248 47.7146V48.7301C47.0248 48.971 47.1519 49.1791 47.3582 49.2826C47.5564 49.3821 47.7863 49.3664 47.9814 49.2686L47.9982 49.2601L48.0141 49.2498C49.6201 48.2136 51.0049 46.9417 52.0469 45.431L52.0469 45.431L52.0503 45.4259C52.2806 45.0792 52.5069 44.6283 52.7211 44.1984C52.7338 44.1859 52.7457 44.1742 52.7575 44.1632C52.7806 44.1414 52.7984 44.1261 52.8124 44.1156C52.8125 44.1156 52.8126 44.1155 52.8126 44.1155H62.3256C62.6085 44.1155 62.8617 43.977 63.0372 43.8009C63.2127 43.6247 63.35 43.3711 63.35 43.0885V42.9756V42.9191L63.3322 42.8653C63.2557 42.6351 63.108 42.4154 62.9255 42.2505C62.7456 42.088 62.497 41.9487 62.2131 41.9487H46.8127C46.6419 41.9487 46.5098 42.0322 46.4336 42.0895C46.357 42.1472 46.2855 42.219 46.2342 42.2705L46.2275 42.2773ZM32.2685 37.5158C32.2445 37.4877 32.2185 37.438 32.2129 37.3637C32.8684 34.1789 35.9597 31.704 39.7307 31.704C43.5015 31.704 46.5927 34.1787 47.2484 37.3634C47.244 37.4201 47.2274 37.4783 47.2041 37.5158C47.1923 37.5347 47.1834 37.541 47.1805 37.5428L47.1804 37.5429C47.1791 37.5437 47.1719 37.5482 47.1499 37.5482H32.3127C32.3119 37.548 32.2935 37.5451 32.2685 37.5158Z" fill="#002B4C" stroke="#002B4C" stroke-width="0.7"/>
</svg>
