<svg width="80" height="80" viewBox="0 0 80 80" fill="none" xmlns="http://www.w3.org/2000/svg">
<path d="M79.5 40C79.5 61.8777 61.8777 79.5 40 79.5C18.1223 79.5 0.5 61.8777 0.5 40C0.5 18.1223 18.1223 0.5 40 0.5C61.8777 0.5 79.5 18.1223 79.5 40Z" fill="#002B4C" stroke="white"/>
<path d="M40 72.0078C22.3797 72.0078 8 57.6281 8 40.0078C8 22.3876 22.3797 8.00781 40 8.00781C57.6203 8.00781 72 22.3876 72 40.0078C72 57.6281 57.6203 72.0078 40 72.0078Z" fill="white"/>
<path d="M40 69.8617C23.5612 69.8617 10.1428 56.4442 10.1428 40.0067C10.1428 23.5693 23.5612 10.1517 40 10.1517C56.4387 10.1517 69.8571 23.5693 69.8571 40.0067C69.8571 56.4442 56.4387 69.8617 40 69.8617Z" stroke="#002B4C" stroke-width="2"/>
<path d="M54.3425 44.616L42.0326 56.771L41.0388 62.3949C40.9028 63.154 41.5732 63.8113 42.3419 63.6817L48.0375 62.6958L60.3475 50.5408C60.5678 50.3232 60.5678 49.9715 60.3475 49.7539L55.1441 44.616C54.9191 44.3985 54.5628 44.3985 54.3425 44.616ZM46.8375 55.7296C46.5796 55.475 46.5796 55.0677 46.8375 54.8131L54.0566 47.6849C54.3144 47.4303 54.7269 47.4303 54.9847 47.6849C55.2425 47.9395 55.2425 48.3468 54.9847 48.6014L47.7656 55.7296C47.5078 55.9842 47.0953 55.9842 46.8375 55.7296ZM45.1452 59.6223H47.3953V61.3026L44.3717 61.8256L42.9138 60.3861L43.4436 57.4006H45.1452V59.6223Z" fill="#FFA132"/>
<path fill-rule="evenodd" clip-rule="evenodd" d="M41.2083 18.3035V28.6637C41.2083 29.6692 42.038 30.4919 43.0521 30.4919H53.5V43.5944L39.6132 57.3066H25.8437C24.822 57.3066 24 56.4915 24 55.4783V20.1317C24 19.1186 24.822 18.3035 25.8437 18.3035H41.2083ZM45.2031 47.5558C45.7101 47.5558 46.125 47.1444 46.125 46.6416V46.0322C46.125 45.5294 45.7101 45.1181 45.2031 45.1181H32.2969C31.7899 45.1181 31.375 45.5294 31.375 46.0322V46.6416C31.375 47.1444 31.7899 47.5558 32.2969 47.5558H45.2031ZM45.2031 42.6804C45.7101 42.6804 46.125 42.269 46.125 41.7663V41.1568C46.125 40.6541 45.7101 40.2427 45.2031 40.2427H32.2969C31.7899 40.2427 31.375 40.6541 31.375 41.1568V41.7663C31.375 42.269 31.7899 42.6804 32.2969 42.6804H45.2031ZM46.125 36.8909V36.2815C46.125 35.7787 45.7101 35.3673 45.2031 35.3673H32.2969C31.7899 35.3673 31.375 35.7787 31.375 36.2815V36.8909C31.375 37.3937 31.7899 37.805 32.2969 37.805H45.2031C45.7101 37.805 46.125 37.3937 46.125 36.8909Z" fill="#002B4C"/>
<path d="M53.5 27.5895V28.0542H43.6667V18.3035H44.1353C44.627 18.3035 45.0956 18.4939 45.4413 18.8367L52.9622 26.3021C53.3079 26.6449 53.5 27.1096 53.5 27.5895Z" fill="#002B4C"/>
<path d="M62.1866 48.7078L64.3477 46.5739C65.229 45.7037 65.229 44.2966 64.3477 43.431L61.5304 40.6492C60.6491 39.7836 59.224 39.7836 58.3474 40.6492L56.1864 42.783C55.966 43.0006 55.966 43.3523 56.1864 43.5699L61.3897 48.7078C61.61 48.9253 61.9663 48.9253 62.1866 48.7078Z" fill="#002B4C"/>
</svg>
