<svg width="201" height="174" viewBox="0 0 201 174" fill="none" xmlns="http://www.w3.org/2000/svg">
<g clip-path="url(#clip0_639_1277)">
<path d="M138.164 53.7836C138.157 57.715 136.983 61.5562 134.792 64.8212C132.6 68.0862 129.489 70.6285 125.851 72.1266C122.214 73.6247 118.214 74.0112 114.356 73.2374C110.499 72.4636 106.958 70.5641 104.181 67.7792C101.404 64.9943 99.5159 61.449 98.7553 57.5917C97.9946 53.7344 98.3956 49.7383 99.9076 46.1088C101.42 42.4793 103.975 39.3793 107.25 37.2008C110.525 35.0224 114.373 33.8634 118.307 33.8704C120.921 33.8682 123.51 34.3824 125.925 35.3832C128.339 36.384 130.532 37.8519 132.377 39.7023C134.223 41.5528 135.684 43.7494 136.677 46.1659C137.67 48.5825 138.175 51.1713 138.164 53.7836Z" fill="#F2F2F2"/>
<path d="M171.27 65.3709L174.066 60.0341C171.558 57.0075 163.329 53.3368 163.329 53.3368L152.192 43.2067C152.074 42.7548 151.838 42.342 151.509 42.01C151.18 41.678 150.769 41.4384 150.318 41.3155C149.867 41.1925 149.392 41.1904 148.939 41.3095C148.487 41.4285 148.075 41.6645 147.743 41.9937C147.411 42.3228 147.172 42.7335 147.049 43.1844C146.927 43.6354 146.925 44.1106 147.045 44.5622C147.164 45.0139 147.401 45.4261 147.731 45.7573C148.061 46.0886 148.472 46.3271 148.923 46.449L160.955 60.8696L171.27 65.3709Z" fill="#9E616A"/>
<path d="M169.915 65.0026L173.864 66.2592C176.736 67.173 179.831 67.1041 182.659 66.0635C183.515 65.7452 184.264 65.1941 184.823 64.4725C185.381 63.7509 185.727 62.8876 185.82 61.9801C185.938 60.7491 185.585 59.5191 184.83 58.5388C184.075 57.5586 182.977 56.9013 181.755 56.6997C178.052 56.0915 173.28 55.7916 171.577 57.8161L171.56 57.8366L169.915 65.0026Z" fill="#123F72"/>
<path d="M141.508 81.3406C152.494 81.3406 161.4 72.441 161.4 61.4627C161.4 50.4844 152.494 41.5847 141.508 41.5847C130.522 41.5847 121.616 50.4844 121.616 61.4627C121.616 72.441 130.522 81.3406 141.508 81.3406Z" fill="white"/>
<path d="M133.39 53.6874C133.117 55.1532 132.67 56.581 132.057 57.9404C128.548 65.3584 138.541 62.9405 142.112 62.9405C146.016 62.9405 149.752 64.9922 149.181 55.8758C148.938 51.9816 146.016 48.811 142.112 48.811C138.777 48.811 134.088 50.2924 133.39 53.6874Z" fill="#2F2E41"/>
<path d="M141.526 62.9388C144.699 62.9388 147.271 60.3685 147.271 57.1979C147.271 54.0273 144.699 51.457 141.526 51.457C138.353 51.457 135.781 54.0273 135.781 57.1979C135.781 60.3685 138.353 62.9388 141.526 62.9388Z" fill="#FFB6B6"/>
<path d="M137.625 51.3459C138.631 50.7326 139.785 50.4009 140.963 50.3853C142.142 50.3698 143.304 50.6711 144.326 51.2576C145.349 51.8442 146.195 52.6945 146.776 53.7196C147.357 54.7447 147.652 55.9071 147.63 57.085C144.702 57.8195 141.627 58.3815 138.505 57.2607L137.768 55.4576L137.333 57.262C136.383 57.6504 135.429 57.9789 134.476 57.2583C134.437 56.0836 134.708 54.9194 135.26 53.8818C135.813 52.8443 136.628 51.9698 137.625 51.3459Z" fill="#2F2E41"/>
<path d="M156.975 74.6802C153.529 78.5987 148.679 81.0058 143.472 81.3818C138.266 81.7578 133.12 80.0727 129.146 76.6901L130.852 71.9326C131.237 71.0876 131.846 70.3634 132.612 69.8377C133.378 69.312 134.273 69.0046 135.2 68.9484L136.286 68.8818L138.874 66.6512C138.874 66.6512 145.848 66.4024 145.744 66.2832L149.968 68.8223L149.965 68.8047L151.626 68.9064C152.553 68.9623 153.448 69.2696 154.214 69.7953C154.98 70.3211 155.589 71.0454 155.974 71.8905L156.975 74.6802Z" fill="#123F72"/>
<path d="M139.763 156.589L139.269 149.719C136.031 148.102 132.447 147.299 128.828 147.38C133.919 151.312 133.512 159.172 137.038 164.551C138.15 166.221 139.624 167.618 141.351 168.641C143.078 169.663 145.012 170.284 147.012 170.458L151.249 172.894C151.734 169.693 151.518 166.425 150.617 163.315C149.716 160.205 148.151 157.327 146.03 154.879C144.826 153.518 143.456 152.314 141.951 151.295C141.025 153.952 139.763 156.589 139.763 156.589Z" fill="#F2F2F2"/>
<path d="M10.9348 34.823L10.4405 27.9531C7.20277 26.3357 3.61886 25.5326 0 25.6135C5.09125 29.5461 4.68345 37.406 8.20941 42.7851C9.32199 44.4544 10.7962 45.8521 12.5228 46.8746C14.2494 47.8972 16.1842 48.5183 18.1837 48.6921L22.4208 51.128C22.9055 47.9267 22.6899 44.6585 21.789 41.5484C20.888 38.4384 19.323 35.5606 17.2018 33.1131C15.9983 31.7519 14.628 30.5476 13.1232 29.5285C12.1971 32.1857 10.9348 34.823 10.9348 34.823Z" fill="#F2F2F2"/>
<path d="M158.298 170.571L154.993 170.571L153.421 157.832H158.299L158.298 170.571Z" fill="#9E616A"/>
<path d="M159.141 173.773L148.484 173.773V173.638C148.484 172.539 148.922 171.484 149.699 170.707C150.477 169.93 151.532 169.493 152.632 169.493H152.633L154.579 168.017L158.211 169.493L159.142 169.493L159.141 173.773Z" fill="#2F2E41"/>
<path d="M187.428 170.571L184.123 170.571L182.551 157.832H187.429L187.428 170.571Z" fill="#9E616A"/>
<path d="M188.27 173.773L177.613 173.773V173.638C177.613 172.539 178.05 171.484 178.828 170.707C179.606 169.93 180.661 169.493 181.761 169.493H181.762L183.708 168.017L187.34 169.493L188.27 169.493L188.27 173.773Z" fill="#2F2E41"/>
<path d="M182.401 102.39L185.181 128.78C185.181 128.78 188.882 155.204 188.187 158.85C187.492 162.496 188.36 163.017 188.36 163.017L182.019 162.566C182.019 162.566 182.193 160.309 181.15 159.267C180.108 158.225 180.629 155.1 180.629 155.1L168.328 112.112L160.857 134.683C160.857 134.683 159.641 159.511 159.467 159.858C159.293 160.205 158.772 164.893 158.772 164.893H152.344C152.344 164.893 153.212 162.115 151.996 161.247C150.78 160.379 149.738 161.073 150.78 159.511C151.823 157.948 152.17 156.038 151.823 155.17C151.475 154.302 151.475 150.83 151.475 150.83C151.475 150.83 151.996 103.952 154.95 102.39C157.904 100.827 182.401 102.39 182.401 102.39Z" fill="#2F2E41"/>
<path d="M169.236 48.9558C173.012 48.9558 176.073 45.8968 176.073 42.1233C176.073 38.3498 173.012 35.2908 169.236 35.2908C165.46 35.2908 162.398 38.3498 162.398 42.1233C162.398 45.8968 165.46 48.9558 169.236 48.9558Z" fill="#9E616A"/>
<path d="M184.764 105.266C171.523 107.999 153.976 103.301 153.976 103.301L158.657 83.0237L156.992 61.8037C156.789 59.2087 158.268 56.7762 160.569 55.9143L163.746 54.7251L166.372 50.968L173.874 51.214L176.872 55.1583L179.239 56.4129L184.369 59.132L184.392 59.1433V59.1546L182.782 74.7605L181.811 84.1701C181.811 84.1701 184.76 94.753 184.155 96.1566C183.549 97.5578 184.076 96.8809 184.222 97.63C184.369 98.3792 184.819 98.4266 184.886 99.9023C184.956 101.376 184.764 105.266 184.764 105.266Z" fill="#123F72"/>
<path d="M200.771 174H98.4881C98.4275 174 98.3694 173.976 98.3266 173.933C98.2838 173.89 98.2598 173.832 98.2598 173.771C98.2598 173.711 98.2838 173.652 98.3266 173.61C98.3694 173.567 98.4275 173.542 98.4881 173.542H200.771C200.832 173.542 200.89 173.566 200.933 173.609C200.976 173.652 201 173.71 201 173.771C201 173.832 200.976 173.89 200.933 173.933C200.89 173.976 200.832 174 200.771 174Z" fill="#CCCCCC"/>
<path d="M168.904 48.6277C170.103 48.6154 171.299 48.5009 172.479 48.2852C173.646 48.0163 176.223 46.0252 176.925 44.849C177.447 43.975 177.76 42.6232 177.931 41.6432C178.162 40.3462 178.118 39.0152 177.801 37.7364C177.484 36.4576 176.902 35.2596 176.092 34.2198C175.78 33.7843 175.356 33.4411 174.865 33.2266C174.822 33.2109 174.777 33.1971 174.732 33.1855C174.02 33.0178 173.374 32.6413 172.878 32.1042C172.782 31.9955 172.677 31.8939 172.567 31.8001C172.01 31.3546 171.355 31.0471 170.657 30.9027C169.528 30.6319 167.914 30.9713 165.859 31.9122C164.827 32.385 163.681 32.2531 162.798 32.0854C162.748 32.0772 162.697 32.082 162.65 32.0995C162.603 32.117 162.562 32.1465 162.529 32.185C162.165 32.5452 161.677 32.7542 161.165 32.7698C160.851 32.7917 160.533 33.2346 160.15 33.8113C160.063 33.9422 159.961 34.095 159.887 34.1882L159.873 34.0131L159.7 34.2133C159.429 34.528 159.242 34.9061 159.156 35.3125C159.071 35.7189 159.089 36.1403 159.211 36.5375C159.332 36.9347 159.552 37.2947 159.85 37.5842C160.148 37.8736 160.514 38.0829 160.915 38.1927C161.233 38.2685 161.558 38.3117 161.885 38.3215C162.083 38.3342 162.288 38.3473 162.485 38.3762C163.117 38.4887 163.709 38.763 164.203 39.1723C164.697 39.5817 165.077 40.1122 165.305 40.712C165.359 40.8506 165.444 40.975 165.553 41.0756C165.663 41.1761 165.794 41.2502 165.937 41.2921C166.079 41.3339 166.23 41.3424 166.377 41.317C166.523 41.2915 166.662 41.2327 166.782 41.1451C166.982 40.981 167.219 40.8677 167.472 40.8149C167.725 40.762 167.988 40.7711 168.237 40.8415C168.453 40.9546 168.624 41.1386 168.721 41.3627C168.838 41.6122 169.027 41.8211 169.263 41.9629C170.069 42.3523 170.171 44.1668 169.925 45.6879C169.687 47.1542 169.17 48.2238 168.667 48.289C168.28 48.3391 168.236 48.3678 168.21 48.4371L168.186 48.4992L168.231 48.5555C168.448 48.6276 168.677 48.6522 168.904 48.6277Z" fill="#2F2E41"/>
<path d="M141.508 81.5896C137.525 81.5896 133.631 80.4091 130.318 78.1976C127.006 75.986 124.425 72.8426 122.9 69.1649C121.376 65.4872 120.977 61.4403 121.754 57.5361C122.531 53.6318 124.45 50.0455 127.266 47.2307C130.083 44.4159 133.672 42.499 137.579 41.7224C141.486 40.9458 145.536 41.3444 149.216 42.8678C152.896 44.3911 156.042 46.9709 158.255 50.2807C160.468 53.5906 161.649 57.4819 161.649 61.4626C161.643 66.7988 159.519 71.9146 155.743 75.6878C151.967 79.4611 146.848 81.5835 141.508 81.5896ZM141.508 41.8337C137.623 41.8337 133.826 42.9849 130.595 45.1418C127.365 47.2986 124.847 50.3643 123.361 53.951C121.874 57.5377 121.485 61.4844 122.243 65.292C123.001 69.0997 124.872 72.5972 127.619 75.3424C130.366 78.0875 133.866 79.957 137.676 80.7144C141.486 81.4718 145.436 81.083 149.025 79.5974C152.614 78.1117 155.682 75.5958 157.84 72.3679C159.999 69.1399 161.151 65.3449 161.151 61.4626C161.145 56.2585 159.074 51.2693 155.391 47.5894C151.709 43.9096 146.716 41.8396 141.508 41.8337Z" fill="#3F3D56"/>
<path d="M71.9856 40.0049C82.9715 40.0049 91.8774 31.1053 91.8774 20.127C91.8774 9.14868 82.9715 0.249023 71.9856 0.249023C60.9996 0.249023 52.0938 9.14868 52.0938 20.127C52.0938 31.1053 60.9996 40.0049 71.9856 40.0049Z" fill="white"/>
<path d="M72.9063 22.1546C76.4886 22.1546 79.3927 19.2526 79.3927 15.6728C79.3927 12.0929 76.4886 9.19092 72.9063 9.19092C69.324 9.19092 66.4199 12.0929 66.4199 15.6728C66.4199 19.2526 69.324 22.1546 72.9063 22.1546Z" fill="#FFB8B8"/>
<path d="M78.6175 11.3908C78.6175 11.3908 80.3063 8.1645 76.5909 7.8712C76.5909 7.8712 73.4234 4.99991 70.1949 7.34628C70.1949 7.34628 68.4339 7.34629 67.4709 9.33769C67.4709 9.33769 66.0859 8.81278 65.7815 10.2176C65.7815 10.2176 64.768 13.1506 65.7815 15.7902C66.795 18.4299 67.1316 18.7232 67.1316 18.7232C67.1316 18.7232 66.4205 15.4475 70.4741 15.1542C74.5277 14.8609 78.2465 12.3233 78.5843 15.5496C78.9221 18.7758 79.2934 17.3184 79.2934 17.3184C79.2934 17.3184 82.502 12.7106 78.6175 11.3908Z" fill="#2F2E41"/>
<path d="M86.9452 33.3445C83.499 37.263 78.649 39.6701 73.4422 40.0461C68.2354 40.4221 63.0895 38.737 59.1152 35.3544L60.8214 30.5969C61.207 29.7519 61.8154 29.0277 62.5815 28.502C63.3476 27.9763 64.2425 27.6689 65.1701 27.6127L66.2555 27.5462L68.8437 25.3155C68.8437 25.3155 75.8174 25.0667 75.714 24.9475L79.9382 27.4866L79.9347 27.4691L81.5952 27.5707C82.5229 27.6266 83.4179 27.9339 84.184 28.4597C84.9502 28.9854 85.5586 29.7097 85.944 30.5548L86.9452 33.3445Z" fill="#123F72"/>
<path d="M71.9857 40.2539C68.0022 40.2539 64.1082 39.0734 60.796 36.8619C57.4838 34.6503 54.9023 31.5069 53.3779 27.8292C51.8535 24.1515 51.4546 20.1046 52.2317 16.2004C53.0089 12.2961 54.9271 8.70985 57.7439 5.89505C60.5607 3.08025 64.1494 1.16335 68.0564 0.386743C71.9634 -0.389859 76.013 0.00871937 79.6933 1.53208C83.3736 3.05544 86.5192 5.63516 88.7323 8.94501C90.9454 12.2549 92.1267 16.1462 92.1267 20.1269C92.1206 25.4631 89.9967 30.5789 86.2208 34.3521C82.445 38.1254 77.3256 40.2478 71.9857 40.2539ZM71.9857 0.498029C68.1008 0.498028 64.3031 1.64924 61.0729 3.80609C57.8427 5.96295 55.325 9.02856 53.8383 12.6153C52.3516 16.202 51.9626 20.1487 52.7205 23.9563C53.4784 27.764 55.3492 31.2615 58.0963 34.0067C60.8434 36.7518 64.3433 38.6213 68.1536 39.3787C71.9639 40.1361 75.9134 39.7473 79.5026 38.2617C83.0918 36.776 86.1596 34.2601 88.3179 31.0322C90.4763 27.8042 91.6283 24.0092 91.6283 20.1269C91.6224 14.9228 89.551 9.93358 85.8686 6.25372C82.1862 2.57387 77.1934 0.503933 71.9857 0.498029Z" fill="#3F3D56"/>
<path d="M25.5569 71.3802C36.5428 71.3802 45.4487 62.4805 45.4487 51.5022C45.4487 40.5239 36.5428 31.6243 25.5569 31.6243C14.5709 31.6243 5.66504 40.5239 5.66504 51.5022C5.66504 62.4805 14.5709 71.3802 25.5569 71.3802Z" fill="white"/>
<path d="M16.3375 45.0358C17.1601 42.4163 19.0305 40.0138 21.6173 39.1283C24.2042 38.2427 27.9921 39.5917 29.9369 41.5285C33.4943 45.0714 34.3624 57.2425 31.9183 61.0888C31.4322 61.063 29.7547 61.044 29.2627 61.0256L28.5667 58.7074V61.0028C27.7828 60.9785 26.9928 60.9618 26.1967 60.9526C23.5274 60.9195 20.9749 59.8536 19.0758 57.9788C17.1768 56.1041 16.079 53.5666 16.0133 50.8998C15.9496 48.3485 16.0134 46.0681 16.3375 45.0358Z" fill="#2F2E41"/>
<path d="M25.2618 53.7176C28.3927 53.7176 30.9308 51.1813 30.9308 48.0525C30.9308 44.9238 28.3927 42.3875 25.2618 42.3875C22.1309 42.3875 19.5928 44.9238 19.5928 48.0525C19.5928 51.1813 22.1309 53.7176 25.2618 53.7176Z" fill="#9E616A"/>
<path d="M20.3691 43.0772L26.8965 39.811C28.231 40.412 29.3803 41.3587 30.2252 42.5531C31.0701 43.7475 31.5799 45.146 31.7017 46.6036L31.8644 48.5511L29.131 47.8558L28.8316 45.3656L28.3674 47.6615L27.106 47.3408L27.118 43.4748L25.8558 47.338L21.3506 46.3037L20.3691 43.0772Z" fill="#2F2E41"/>
<path d="M40.3182 64.6567C36.872 68.5752 32.0221 70.9823 26.8152 71.3584C21.6084 71.7344 16.4625 70.0492 12.4883 66.6666L14.1944 61.9091C14.58 61.0642 15.1885 60.34 15.9546 59.8143C16.7207 59.2886 17.6155 58.9811 18.5431 58.925L19.6286 58.8584L22.2168 56.6277C22.2168 56.6277 29.1905 56.3789 29.087 56.2598L33.3112 58.7988L33.3077 58.7813L34.9683 58.8829C35.896 58.9388 36.7909 59.2462 37.5571 59.7719C38.3232 60.2976 38.9316 61.0219 39.317 61.8671L40.3182 64.6567Z" fill="#123F72"/>
<path d="M25.557 71.6291C21.5735 71.6291 17.6794 70.4487 14.3673 68.2371C11.0551 66.0255 8.47359 62.8821 6.94916 59.2044C5.42474 55.5267 5.02588 51.4799 5.80303 47.5756C6.58017 43.6714 8.49841 40.0851 11.3152 37.2703C14.1319 34.4555 17.7207 32.5386 21.6277 31.762C25.5347 30.9854 29.5843 31.384 33.2646 32.9073C36.9449 34.4307 40.0905 37.0104 42.3036 40.3203C44.5167 43.6301 45.698 47.5215 45.698 51.5022C45.6919 56.8383 43.568 61.9542 39.7921 65.7274C36.0163 69.5006 30.8969 71.6231 25.557 71.6291ZM25.557 31.8733C21.6721 31.8733 17.8744 33.0245 14.6442 35.1813C11.4139 37.3382 8.8963 40.4038 7.4096 43.9905C5.92289 47.5772 5.53391 51.524 6.29182 55.3316C7.04973 59.1392 8.92051 62.6368 11.6676 65.3819C14.4146 68.1271 17.9146 69.9965 21.7249 70.7539C25.5352 71.5113 29.4847 71.1226 33.0739 69.6369C36.6631 68.1513 39.7309 65.6354 41.8892 62.4074C44.0476 59.1795 45.1996 55.3844 45.1996 51.5022C45.1937 46.2981 43.1223 41.3088 39.4399 37.629C35.7575 33.9491 30.7647 31.8792 25.557 31.8733V31.8733Z" fill="#3F3D56"/>
<path d="M159.88 71.775L156.868 66.5562C152.967 67.0514 145.458 72.0289 145.458 72.0289L130.931 76.0007C130.486 75.8586 130.011 75.8364 129.554 75.9361C129.097 76.0359 128.675 76.2542 128.329 76.5689C127.984 76.8837 127.727 77.2839 127.586 77.7292C127.444 78.1745 127.423 78.6492 127.523 79.1055C127.623 79.5619 127.842 79.9837 128.158 80.3287C128.473 80.6736 128.874 80.9294 129.32 81.0704C129.765 81.2113 130.24 81.2324 130.697 81.1316C131.154 81.0307 131.575 80.8115 131.92 80.4959L150.551 78.0674L159.88 71.775Z" fill="#9E616A"/>
<path d="M158.843 72.721L165.585 67.0777L166.566 62.5353C166.756 61.6428 166.691 60.7152 166.381 59.8573C166.07 58.9994 165.526 58.2454 164.809 57.6805C163.832 56.9213 162.603 56.5611 161.371 56.6728C160.138 56.7844 158.994 57.3596 158.17 58.282C155.672 61.0814 152.862 64.9476 153.661 67.4687L153.669 67.4942L158.843 72.721Z" fill="#123F72"/>
<path d="M55.5045 92.3256H30.1711C29.4922 92.3248 28.8413 92.055 28.3612 91.5752C27.8812 91.0955 27.6111 90.445 27.6104 89.7666V74.1745C27.6111 73.496 27.8812 72.8456 28.3612 72.3658C28.8413 71.8861 29.4922 71.6162 30.1711 71.6155H55.5045C56.1834 71.6162 56.8343 71.8861 57.3144 72.3658C57.7945 72.8456 58.0645 73.496 58.0653 74.1745V89.7666C58.0645 90.445 57.7945 91.0955 57.3144 91.5752C56.8343 92.055 56.1834 92.3248 55.5045 92.3256Z" fill="#E6E6E6"/>
<path d="M45.4393 90.3172H31.9521C31.3163 90.3165 30.7066 90.0638 30.257 89.6145C29.8074 89.1652 29.5544 88.556 29.5537 87.9206V76.0204C29.5544 75.385 29.8074 74.7758 30.257 74.3265C30.7066 73.8772 31.3163 73.6245 31.9521 73.6238H53.724C54.3598 73.6245 54.9694 73.8772 55.419 74.3265C55.8686 74.7758 56.1215 75.385 56.1223 76.0204V79.6418C56.119 82.4722 54.9925 85.1856 52.9897 87.187C50.987 89.1883 48.2716 90.314 45.4393 90.3172Z" fill="white"/>
<path d="M51.5521 80.1401H34.1241C33.9733 80.1401 33.8287 80.0803 33.7221 79.9738C33.6155 79.8673 33.5557 79.7228 33.5557 79.5721C33.5557 79.4215 33.6155 79.277 33.7221 79.1705C33.8287 79.064 33.9733 79.0042 34.1241 79.0042H51.5521C51.7029 79.0042 51.8475 79.064 51.954 79.1705C52.0606 79.277 52.1205 79.4215 52.1205 79.5721C52.1205 79.7228 52.0606 79.8673 51.954 79.9738C51.8475 80.0803 51.7029 80.1401 51.5521 80.1401Z" fill="#123F72"/>
<path d="M36.8503 82.3846H34.1241C33.9733 82.3846 33.8287 82.3247 33.7221 82.2182C33.6156 82.1117 33.5557 81.9672 33.5557 81.8166C33.5557 81.6659 33.6156 81.5214 33.7221 81.4149C33.8287 81.3084 33.9733 81.2485 34.1241 81.2485H36.8503C37.001 81.2485 37.1456 81.3084 37.2522 81.4149C37.3588 81.5214 37.4187 81.6659 37.4187 81.8166C37.4187 81.9672 37.3588 82.1117 37.2522 82.2182C37.1456 82.3247 37.001 82.3846 36.8503 82.3846Z" fill="#123F72"/>
<path d="M41.6785 84.629H34.1239C33.9733 84.6286 33.829 84.5687 33.7227 84.4622C33.6164 84.3557 33.5566 84.2114 33.5566 84.0609C33.5566 83.9105 33.6164 83.7662 33.7227 83.6597C33.829 83.5532 33.9733 83.4932 34.1239 83.4929H41.6785C41.8291 83.4932 41.9733 83.5532 42.0797 83.6597C42.186 83.7662 42.2458 83.9105 42.2458 84.0609C42.2458 84.2114 42.186 84.3557 42.0797 84.4622C41.9733 84.5687 41.8291 84.6286 41.6785 84.629Z" fill="#123F72"/>
<path d="M26.7272 76.6602C29.6869 76.6602 32.0862 74.2626 32.0862 71.305C32.0862 68.3473 29.6869 65.9497 26.7272 65.9497C23.7675 65.9497 21.3682 68.3473 21.3682 71.305C21.3682 74.2626 23.7675 76.6602 26.7272 76.6602Z" fill="#3F3D56"/>
<path d="M121.29 21.6066H95.9563C95.2774 21.6058 94.6265 21.336 94.1464 20.8562C93.6663 20.3765 93.3963 19.726 93.3955 19.0476V3.45551C93.3963 2.77705 93.6663 2.1266 94.1464 1.64686C94.6265 1.16711 95.2774 0.897254 95.9563 0.896484H121.29C121.969 0.897251 122.619 1.16711 123.1 1.64685C123.58 2.1266 123.85 2.77705 123.85 3.45551V19.0476C123.85 19.726 123.58 20.3765 123.1 20.8562C122.619 21.336 121.969 21.6059 121.29 21.6066Z" fill="#E6E6E6"/>
<path d="M111.224 19.5982H97.7373C97.1014 19.5975 96.4918 19.3448 96.0422 18.8955C95.5925 18.4462 95.3396 17.837 95.3389 17.2016V5.30139C95.3396 4.66597 95.5925 4.0568 96.0422 3.6075C96.4918 3.15821 97.1014 2.90549 97.7373 2.90479H119.509C120.145 2.90549 120.755 3.15822 121.204 3.60751C121.654 4.05681 121.907 4.66599 121.907 5.30139V8.92286C121.904 11.7532 120.778 14.4666 118.775 16.468C116.772 18.4693 114.057 19.595 111.224 19.5982Z" fill="white"/>
<path d="M117.337 9.42114H99.9092C99.7585 9.42114 99.6139 9.3613 99.5073 9.25478C99.4007 9.14826 99.3408 9.00379 99.3408 8.85315C99.3408 8.70251 99.4007 8.55803 99.5073 8.45151C99.6139 8.34499 99.7585 8.28516 99.9092 8.28516H117.337C117.488 8.28516 117.633 8.34499 117.739 8.45151C117.846 8.55803 117.906 8.70251 117.906 8.85315C117.906 9.00379 117.846 9.14826 117.739 9.25478C117.633 9.3613 117.488 9.42114 117.337 9.42114Z" fill="#123F72"/>
<path d="M102.635 11.6656H99.9092C99.7585 11.6656 99.6139 11.6057 99.5073 11.4992C99.4007 11.3927 99.3408 11.2482 99.3408 11.0976C99.3408 10.9469 99.4007 10.8024 99.5073 10.6959C99.6139 10.5894 99.7585 10.5295 99.9092 10.5295H102.635C102.786 10.5295 102.931 10.5894 103.037 10.6959C103.144 10.8024 103.204 10.9469 103.204 11.0976C103.204 11.2482 103.144 11.3927 103.037 11.4992C102.931 11.6057 102.786 11.6656 102.635 11.6656Z" fill="#123F72"/>
<path d="M107.464 13.91H99.909C99.7585 13.9097 99.6142 13.8497 99.5078 13.7432C99.4015 13.6367 99.3418 13.4924 99.3418 13.3419C99.3418 13.1915 99.4015 13.0472 99.5078 12.9407C99.6142 12.8342 99.7585 12.7742 99.909 12.7739H107.464C107.614 12.7739 107.759 12.8338 107.866 12.9403C107.972 13.0468 108.032 13.1913 108.032 13.3419C108.032 13.4926 107.972 13.6371 107.866 13.7436C107.759 13.8501 107.614 13.91 107.464 13.91Z" fill="#123F72"/>
<path d="M92.5114 24.617C95.471 24.617 97.8704 22.2194 97.8704 19.2618C97.8704 16.3041 95.471 13.9065 92.5114 13.9065C89.5517 13.9065 87.1523 16.3041 87.1523 19.2618C87.1523 22.2194 89.5517 24.617 92.5114 24.617Z" fill="#3F3D56"/>
</g>
<defs>
<clipPath id="clip0_639_1277">
<rect width="201" height="174" fill="white"/>
</clipPath>
</defs>
</svg>
