<svg width="78" height="109" viewBox="0 0 78 109" fill="none" xmlns="http://www.w3.org/2000/svg">
<path d="M50.0977 95.3105H46.1912C43.0371 95.3105 39.8801 95.3105 36.7201 95.3105C36.4559 95.3105 36.3268 95.2571 36.3737 94.9667C36.3819 94.8681 36.3819 94.7689 36.3737 94.6703V12.5024C36.4862 12.4699 36.604 12.4608 36.7201 12.4757H49.7484C50.1417 12.4757 50.1417 12.4757 50.1417 12.8818C50.1417 24.5002 50.1417 36.1196 50.1417 47.7401C50.1417 47.8646 50.1857 48.0009 50.0977 48.1165H44.9791C44.8911 47.989 44.938 47.8408 44.938 47.7045C44.938 37.7261 44.938 27.7476 44.938 17.7692C44.9631 17.6292 44.951 17.485 44.9028 17.3513C44.6126 17.2957 44.3159 17.2837 44.0223 17.3157C43.2152 17.3157 42.4081 17.2654 41.6039 17.3513C41.6039 17.4788 41.5863 17.6092 41.5863 17.7396C41.5863 28.8482 41.5863 39.9589 41.5863 51.0715C41.5863 51.4212 41.6743 51.4894 42.006 51.4864C44.7061 51.4686 47.4063 51.4716 50.1036 51.4686C50.1652 51.525 50.1505 51.5991 50.1505 51.6672V56.1634C50.152 56.2103 50.143 56.2569 50.1241 56.2998C47.3917 56.2998 44.6592 56.2998 41.9238 56.2998C41.6303 56.2998 41.5892 56.3887 41.5892 56.6525C41.5892 67.8165 41.5892 78.9805 41.5892 90.1444C41.5892 90.4408 41.6684 90.5149 41.9561 90.506C42.9393 90.4705 43.9225 90.5357 44.9057 90.4705C44.9538 90.3378 44.966 90.1945 44.9409 90.0555C44.9409 80.081 44.9409 70.1085 44.9409 60.138C44.9409 59.6253 44.891 59.6905 45.3959 59.6905C46.8634 59.6905 48.3308 59.6905 49.7983 59.6905C50.0595 59.6905 50.1593 59.732 50.1593 60.0313C50.1593 71.6893 50.1593 83.3552 50.1593 95.0289C50.1476 95.109 50.1799 95.2186 50.0977 95.3105Z" fill="white"/>
<path d="M32.9928 12.5233C32.9928 12.6626 32.9928 12.8049 32.9928 12.9471C32.9928 24.5241 32.9928 36.101 32.9928 47.678C32.9928 48.0455 32.8989 48.1196 32.5497 48.1166C30.9677 48.0989 29.3828 48.1166 27.8009 48.1166C27.7011 47.9892 27.7539 47.841 27.7539 47.7047C27.7539 37.7322 27.7539 27.7537 27.7539 17.7694C27.7539 17.6656 27.7539 17.5589 27.7539 17.4522C27.7539 17.3455 27.7099 17.2951 27.6072 17.2981C26.5652 17.3159 25.5233 17.2507 24.4814 17.3337C24.4347 17.4553 24.4225 17.5877 24.4462 17.716C24.4462 28.8247 24.4462 39.9333 24.4462 51.042C24.4225 51.1703 24.4347 51.3027 24.4814 51.4243C24.6025 51.4692 24.7332 51.4804 24.86 51.4569C27.4399 51.4569 30.0226 51.4569 32.6025 51.4569C32.9371 51.4569 33.0017 51.5607 32.9987 51.8719C32.9811 53.2076 32.9811 54.5453 32.9987 55.885C32.9987 56.1814 32.94 56.2999 32.6054 56.297C30.0256 56.2792 27.4428 56.297 24.863 56.297C24.7368 56.297 24.6076 56.3148 24.4814 56.3237C24.4355 56.4331 24.4232 56.5539 24.4462 56.6704C24.4462 67.8186 24.4462 78.9658 24.4462 90.112C24.4225 90.2275 24.4348 90.3476 24.4814 90.4558C25.5615 90.5062 26.6386 90.4914 27.7099 90.4558C27.7581 90.3221 27.7702 90.1779 27.7451 90.0379C27.7451 80.093 27.7451 70.1492 27.7451 60.2063C27.7515 60.1077 27.7515 60.0086 27.7451 59.91C27.7216 59.7054 27.8097 59.6432 28.0063 59.6491C28.4994 59.6491 28.9925 59.6491 29.4738 59.6491H32.6553C32.7669 59.6491 32.8901 59.6076 32.9928 59.6936C32.9928 59.8359 32.9928 59.99 32.9928 60.1174C32.9928 71.6983 32.9928 83.2783 32.9928 94.8572C32.9928 95.1891 32.9283 95.2899 32.5761 95.2869C28.2832 95.2751 23.9893 95.2751 19.6945 95.2869H19.2748C19.1867 95.1714 19.2307 95.035 19.2307 94.9105C19.2307 67.5558 19.2307 40.204 19.2307 12.8552C19.2307 12.4522 19.2307 12.4521 19.6299 12.4521H32.623C32.7434 12.4788 32.8784 12.4344 32.9928 12.5233Z" fill="white"/>
<path d="M58.7733 90.452C59.8152 90.5143 60.8571 90.452 61.899 90.4817C62.0311 90.4817 62.1015 90.4491 62.0839 90.3038C62.081 90.2565 62.081 90.209 62.0839 90.1616C62.0839 80.0073 62.0839 69.852 62.0839 59.6958C62.2913 59.6598 62.5025 59.6518 62.712 59.672H66.9178C67.0454 59.6563 67.1747 59.6643 67.2994 59.6958C67.2994 71.4051 67.2994 83.1154 67.2994 94.8268C67.2994 95.301 67.2994 95.301 66.8122 95.301H53.9628H53.5754C53.4903 95.1972 53.5314 95.0728 53.5314 94.9601C53.5314 67.5856 53.5314 40.2112 53.5314 12.8367C53.5314 12.5996 53.5314 12.4573 53.8572 12.4573C58.2577 12.4691 62.6602 12.4691 67.0646 12.4573C67.1467 12.4469 67.2302 12.456 67.3082 12.484C67.3082 24.2071 67.3082 35.9293 67.3082 47.6505C67.3082 47.9884 67.2554 48.1069 66.8797 48.101C65.4122 48.0743 63.9447 48.0803 62.4772 48.101C62.1573 48.101 62.0781 48.021 62.0781 47.6979C62.0781 37.7156 62.0781 27.7371 62.0781 17.7627C62.0781 17.6204 62.0781 17.4663 62.0604 17.3388C61.9998 17.3017 61.9278 17.288 61.8579 17.3003H59.146C58.7997 17.3003 58.741 17.3685 58.7322 17.7152V17.9286C58.7322 28.9583 58.7322 39.9859 58.7322 51.0116C58.7071 51.1516 58.7192 51.2958 58.7674 51.4295C58.8885 51.4743 59.0192 51.4855 59.146 51.4621C61.7503 51.4621 64.3546 51.4621 66.9589 51.4621C67.2084 51.4621 67.2994 51.5036 67.2965 51.7851C67.2788 53.1801 67.2788 54.5771 67.2965 55.9761C67.2965 56.2576 67.2113 56.2962 66.9619 56.2962C64.3585 56.2962 61.7552 56.2962 59.149 56.2962C59.0228 56.2962 58.8936 56.314 58.7674 56.3229C58.7215 56.4323 58.7092 56.5531 58.7322 56.6696C58.7322 67.8178 58.7322 78.965 58.7322 90.1112C58.711 90.2264 58.7253 90.3454 58.7733 90.452Z" fill="white"/>
<path d="M15.8787 12.5229C15.8787 12.674 15.8787 12.8193 15.8787 12.9823V94.839C15.8787 95.3754 15.9492 95.2984 15.4062 95.3013C13.836 95.3013 12.2628 95.3013 10.6897 95.3013C10.6322 95.1596 10.6179 95.0038 10.6486 94.8538C10.6486 69.1668 10.6417 43.4797 10.628 17.7927C10.628 16.293 10.5723 14.7903 10.5635 13.2905V13.0416C10.5635 12.4755 10.6398 12.4014 11.1945 12.4014C12.4037 12.4014 13.6129 12.4014 14.8192 12.4014C15.1748 12.4156 15.529 12.4562 15.8787 12.5229Z" fill="white"/>
<path d="M43.4825 102.863C43.5265 102.697 43.6439 102.658 43.8024 102.658C44.9617 102.658 46.124 102.658 47.2833 102.658C47.6766 102.658 47.7646 102.955 47.5151 103.364C46.5437 103.426 45.5722 103.364 44.6007 103.39C44.4736 103.368 44.3429 103.38 44.2221 103.426L44.2015 103.838C44.1726 104.102 44.157 104.367 44.1546 104.632C44.1839 104.68 44.0343 104.878 44.2426 104.768C44.5645 104.613 44.9097 104.513 45.264 104.472C45.4253 104.445 45.5899 104.445 45.7512 104.472C46.4967 104.588 47.1571 104.849 47.5885 105.524C47.7245 105.781 47.8233 106.057 47.882 106.342C47.9084 106.6 47.9084 106.861 47.882 107.119C47.5474 108.779 46.0741 109.194 44.7181 108.897C44.3903 108.846 44.083 108.704 43.8298 108.487C43.5766 108.271 43.3874 107.988 43.2829 107.67C43.2359 107.534 43.2829 107.394 43.2037 107.27C43.1743 107.061 43.1743 106.848 43.2037 106.639C43.4971 106.384 43.8288 106.485 43.8963 106.846C44.1311 108.079 45.2846 108.645 46.4145 108.082C46.9692 107.809 47.2275 107.297 47.1717 106.574C47.1476 106.277 47.033 105.995 46.8438 105.767C46.6546 105.539 46.4001 105.375 46.1152 105.299C45.3433 105.077 44.5039 105.258 44.1076 105.913C44.0555 105.976 43.9941 106.031 43.9257 106.076C43.8117 106.11 43.6904 106.11 43.5764 106.076C43.2125 105.96 43.4443 105.646 43.368 105.435C43.4443 105.139 43.368 104.843 43.415 104.573L43.4385 103.66C43.4665 103.395 43.4812 103.129 43.4825 102.863Z" fill="white"/>
<path d="M32.9924 12.5225C32.8727 12.4725 32.7416 12.4571 32.6137 12.478C28.2817 12.478 23.9526 12.478 19.6206 12.478C19.2889 12.478 19.2214 12.5788 19.2214 12.8929C19.2214 40.2437 19.2214 67.5925 19.2214 94.9393C19.2004 95.0684 19.2157 95.2009 19.2655 95.3217C19.1305 95.2268 19.1862 95.0845 19.1862 94.963C19.1862 67.5885 19.1862 40.216 19.1862 12.8455C19.1862 12.5491 19.2567 12.4424 19.5736 12.4424C23.9291 12.4424 28.2817 12.4424 32.6372 12.4424C32.7576 12.4395 32.8984 12.3861 32.9924 12.5225Z" fill="white"/>
<path d="M67.2964 12.5018C67.179 12.5018 67.0616 12.4781 66.9472 12.4781C62.6034 12.4781 58.2626 12.4781 53.9188 12.4781C53.5872 12.4781 53.5196 12.5789 53.5196 12.8931C53.5196 40.232 53.5196 67.5689 53.5196 94.9039C53.4972 95.0447 53.5124 95.1889 53.5637 95.3218C53.4111 95.1914 53.4844 95.0254 53.4844 94.8565C53.4844 67.7211 53.4844 40.5876 53.4844 13.4562C53.4844 13.2191 53.4844 12.982 53.4844 12.7449C53.4844 12.5078 53.5666 12.4218 53.7779 12.4485C53.8248 12.4514 53.8719 12.4514 53.9188 12.4485H66.8767C67.0264 12.4396 67.1702 12.3922 67.2964 12.5018Z" fill="white"/>
<path d="M32.3293 105.785C32.3293 106.648 32.3293 107.513 32.3293 108.375C32.3293 108.53 32.3645 108.707 32.2002 108.82C32.14 108.858 32.0721 108.882 32.0015 108.891C31.9309 108.899 31.8594 108.891 31.7922 108.867C31.6366 108.814 31.6748 108.63 31.6748 108.494C31.6748 107.075 31.6748 105.655 31.6748 104.232C31.6748 104.131 31.7306 103.986 31.6308 103.936C31.531 103.885 31.4547 104.048 31.3637 104.11C31.1348 104.27 31.0291 104.626 30.671 104.582C30.5683 104.582 30.4186 104.682 30.3775 104.511C30.3417 104.436 30.3297 104.353 30.3434 104.271C30.3571 104.19 30.3957 104.115 30.4538 104.057C30.7473 103.79 31.0056 103.509 31.2786 103.23C31.3935 103.123 31.4915 102.999 31.5691 102.863C31.6198 102.769 31.7025 102.697 31.802 102.66C31.9014 102.624 32.0107 102.625 32.1092 102.664C32.3381 102.72 32.3234 102.919 32.3264 103.088C32.3322 103.986 32.3293 104.884 32.3293 105.785Z" fill="white"/>
<path d="M50.0973 95.3101C50.1486 95.1773 50.1638 95.033 50.1413 94.8922C50.1413 83.2995 50.1413 71.7057 50.1413 60.111C50.1413 59.7642 50.0738 59.6545 49.7069 59.6605C48.2394 59.6842 46.772 59.6812 45.3045 59.6605C44.9934 59.6605 44.9141 59.7375 44.9171 60.0517C44.9171 67.7716 44.9171 75.4926 44.9171 83.2145C44.9171 85.4987 44.9171 87.7838 44.9171 90.07C44.9171 90.1974 44.9581 90.3308 44.8818 90.4494V60.1169C44.8818 59.6338 44.8818 59.6338 45.3514 59.6338C46.8189 59.6338 48.3099 59.6338 49.7891 59.6338C50.0679 59.6338 50.1736 59.6931 50.1736 60.0013C50.1736 71.6593 50.1736 83.3232 50.1736 94.993C50.1795 95.0997 50.2235 95.2272 50.0973 95.3101Z" fill="white"/>
<path d="M50.098 48.1163C50.149 47.9834 50.1642 47.8392 50.142 47.6984C50.142 36.1037 50.142 24.5099 50.142 12.9172C50.142 12.5645 50.0686 12.4667 49.7047 12.4667C45.3873 12.4815 41.07 12.4667 36.7497 12.4667C36.6235 12.4667 36.4944 12.4815 36.3682 12.4904C36.4768 12.3866 36.6118 12.4281 36.738 12.4281C41.0788 12.4281 45.4196 12.4281 49.7605 12.4281C50.0686 12.4281 50.1802 12.4933 50.1802 12.8342C50.1802 24.4724 50.1802 36.1126 50.1802 47.7547C50.1802 47.8792 50.233 48.0304 50.098 48.1163Z" fill="white"/>
<path d="M58.7737 51.4363C58.7003 51.3266 58.7384 51.2051 58.7384 51.0924C58.7384 39.966 58.7384 28.8386 58.7384 17.7102C58.7384 17.3367 58.847 17.2656 59.1875 17.2774C60.0445 17.3011 60.8986 17.2774 61.7556 17.2774C61.8612 17.2774 61.9875 17.2092 62.0755 17.3337C61.1627 17.3337 60.247 17.3337 59.3313 17.3337C58.8206 17.3337 58.7854 17.3663 58.7854 17.8702V51.4363H58.7737Z" fill="white"/>
<path d="M32.9929 59.7172C32.8732 59.6672 32.7422 59.6518 32.6143 59.6727C31.1234 59.6727 29.6353 59.6727 28.1443 59.6727C27.8244 59.6727 27.7657 59.7646 27.7657 60.0669C27.7657 70.071 27.7657 80.0751 27.7657 90.0793C27.7657 90.2097 27.8332 90.3579 27.71 90.4735V60.1321C27.71 59.6342 27.71 59.6342 28.2001 59.6342C29.6676 59.6342 31.1351 59.6342 32.6026 59.6342C32.7347 59.6371 32.8873 59.5897 32.9929 59.7172Z" fill="white"/>
<path d="M24.4748 90.4525C24.4014 90.3458 24.4396 90.2242 24.4396 90.1087C24.4396 78.9605 24.4396 67.8123 24.4396 56.6641C24.4396 56.5515 24.4014 56.427 24.4748 56.3203V90.4525Z" fill="white"/>
<path d="M58.7737 90.4525C58.7003 90.3458 58.7384 90.2242 58.7384 90.1087C58.7384 78.9605 58.7384 67.8123 58.7384 56.6641C58.7384 56.5515 58.7003 56.427 58.7737 56.3203V90.4525Z" fill="white"/>
<path d="M24.4756 17.3453C24.5666 17.2238 24.6928 17.289 24.7984 17.289C25.6789 17.289 26.5359 17.3038 27.4047 17.289C27.7364 17.289 27.7804 17.3957 27.7804 17.6891C27.7804 27.6833 27.7804 37.6776 27.7804 47.6718C27.7804 47.8229 27.798 47.9682 27.8068 48.1312C27.6454 48.0008 27.7246 47.82 27.7246 47.6659C27.7246 37.7269 27.7246 27.79 27.7246 17.8551C27.7246 17.3601 27.7246 17.3601 27.2345 17.3601L24.4756 17.3453Z" fill="white"/>
<path d="M24.4752 51.4354C24.4018 51.3257 24.44 51.2042 24.44 51.0916C24.44 39.9572 24.44 28.8239 24.44 17.6915C24.417 17.575 24.4293 17.4541 24.4752 17.3447V51.4354Z" fill="white"/>
<path d="M44.8973 17.3447C44.9469 17.4771 44.9591 17.6207 44.9326 17.7597C44.9326 27.7144 44.9326 37.6701 44.9326 47.6268C44.9065 47.7907 44.9206 47.9586 44.9736 48.1158C44.8269 47.9973 44.8944 47.8194 44.8944 47.6861C44.8964 37.5713 44.8973 27.4575 44.8973 17.3447Z" fill="white"/>
<path d="M67.2965 59.696C66.2693 59.696 65.242 59.6752 64.2148 59.6723C63.5045 59.6723 62.7943 59.6871 62.0811 59.696C62.1662 59.6069 62.2777 59.6336 62.3746 59.6336H66.9942C67.0999 59.6336 67.2114 59.6069 67.2965 59.696Z" fill="white"/>
<path d="M50.1182 56.294C50.1182 55.1085 50.1417 53.9407 50.1388 52.764C50.1749 52.3302 50.1611 51.8935 50.0977 51.4629C50.2004 51.5222 50.1798 51.6229 50.1798 51.7148V56.0658C50.1876 56.1061 50.1861 56.1476 50.1754 56.1872C50.1648 56.2268 50.1452 56.2633 50.1182 56.294Z" fill="white"/>
<path d="M41.6064 17.3453C41.6417 17.2502 41.7209 17.2858 41.7825 17.2858H44.7175C44.7821 17.2858 44.8613 17.2561 44.8995 17.3453H41.6064Z" fill="white"/>
<path d="M43.9287 103.417C44.0168 103.298 44.14 103.36 44.2457 103.36C45.2377 103.36 46.2297 103.36 47.2217 103.36C47.1132 103.464 46.9781 103.42 46.8578 103.423L43.9287 103.417Z" fill="white"/>
<path d="M42.7341 106.688C42.6882 106.416 42.5744 106.159 42.4034 105.943C42.2325 105.727 42.01 105.558 41.7567 105.452C42.0839 105.247 42.3292 104.933 42.4494 104.563C42.4816 104.353 42.4816 104.139 42.4494 103.929C42.3963 103.67 42.2791 103.428 42.1087 103.227C41.9383 103.026 41.7203 102.872 41.475 102.779C41.1707 102.669 40.8543 102.596 40.5328 102.563C40.371 102.53 40.2045 102.53 40.0427 102.563C39.9635 102.563 39.8813 102.563 39.802 102.586C38.7513 102.737 38.2465 103.078 38.1232 104C38.0968 104.163 38.0968 104.329 38.1232 104.492C38.1865 104.877 38.3974 105.221 38.7102 105.449C38.4774 105.556 38.2755 105.72 38.1239 105.928C37.9723 106.136 37.8761 106.379 37.8444 106.635C37.8136 106.893 37.8136 107.154 37.8444 107.411C37.9029 107.828 38.112 108.208 38.4314 108.478C39.0683 108.962 39.7903 109.018 40.5328 108.973C41.4133 108.92 42.4435 108.63 42.7253 107.411C42.759 107.172 42.762 106.929 42.7341 106.688ZM39.3412 103.428C39.643 103.295 39.9725 103.238 40.301 103.262C40.6179 103.241 40.9353 103.298 41.2255 103.428C41.3824 103.497 41.5149 103.612 41.6051 103.759C41.6953 103.905 41.739 104.076 41.7303 104.249C41.7259 104.405 41.6722 104.555 41.5772 104.678C41.4821 104.8 41.3506 104.889 41.202 104.931C40.9075 105.064 40.5885 105.133 40.2658 105.133C39.943 105.133 39.624 105.064 39.3295 104.931C39.188 104.888 39.0638 104.8 38.9755 104.681C38.8872 104.561 38.8395 104.416 38.8394 104.267C38.8282 104.092 38.8703 103.919 38.9601 103.769C39.0499 103.62 39.1829 103.502 39.3412 103.431V103.428ZM41.4544 107.969C41.0988 108.153 40.7054 108.252 40.3056 108.257C39.9057 108.261 39.5102 108.172 39.1505 107.995C38.9403 107.901 38.7679 107.737 38.6614 107.531C38.5548 107.325 38.5203 107.088 38.5635 106.86C38.5792 106.65 38.6608 106.451 38.7965 106.291C38.9321 106.131 39.1147 106.019 39.3178 105.971C39.642 105.867 39.9815 105.82 40.3215 105.832C40.6615 105.819 41.0008 105.871 41.3223 105.983C41.5161 106.039 41.6876 106.155 41.8129 106.314C41.9382 106.474 42.0109 106.669 42.0209 106.872C42.0587 107.093 42.0238 107.32 41.9214 107.518C41.8191 107.717 41.655 107.876 41.4544 107.972V107.969Z" fill="white"/>
<path d="M37.5012 104.558C37.4249 104.424 37.5012 104.261 37.4513 104.131C37.1372 102.753 35.9838 102.353 34.8656 102.516C33.8031 102.667 33.0488 103.354 33.1251 104.819C33.1662 105.619 33.9146 106.597 34.8303 106.635C34.9507 106.674 35.0827 106.621 35.2031 106.68H35.3762C35.5142 106.606 35.6697 106.68 35.8106 106.627C36.1262 106.548 36.4288 106.423 36.7087 106.256C36.8643 107.468 36.4827 108.052 35.611 108.251C35.3918 108.301 35.1641 108.301 34.9448 108.251C34.2844 108.194 33.8706 107.777 33.7708 107C33.7415 106.742 33.6417 106.638 33.4157 106.624C33.1897 106.609 33.0752 106.793 33.0605 107.021C33.1281 107.136 33.0606 107.273 33.1104 107.388C33.1758 107.821 33.3898 108.217 33.7149 108.506C34.0401 108.795 34.4558 108.96 34.889 108.971C35.1444 109.002 35.4026 109.002 35.658 108.971C36.082 108.931 36.4826 108.757 36.8025 108.473C37.1225 108.189 37.3455 107.811 37.4395 107.391C37.4894 107.252 37.4102 107.095 37.4894 106.964L37.5012 104.558ZM35.3146 105.975C34.4341 105.975 33.8471 105.408 33.8471 104.579C33.8471 103.749 34.4341 103.171 35.3146 103.171C36.1951 103.171 36.7821 103.725 36.7968 104.573C36.8115 105.42 36.201 105.972 35.3146 105.975Z" fill="white"/>
<path d="M0 0V107.619H27.853V103.558H4.02386V4.03978H73.982V103.558H50.0297V107.619H78V0H0Z" fill="white"/>
</svg>
